<?xml version="1.0" encoding="UTF-8" standalone="no"?>
<svg
   xmlns:dc="http://purl.org/dc/elements/1.1/"
   xmlns:cc="http://creativecommons.org/ns#"
   xmlns:rdf="http://www.w3.org/1999/02/22-rdf-syntax-ns#"
   xmlns:svg="http://www.w3.org/2000/svg"
   xmlns="http://www.w3.org/2000/svg"
   xmlns:sodipodi="http://sodipodi.sourceforge.net/DTD/sodipodi-0.dtd"
   xmlns:inkscape="http://www.inkscape.org/namespaces/inkscape"
   viewBox="0 0 330.35541 68.790115"
   version="1.1"
   id="svg849"
   sodipodi:docname="Atom_icon.svg"
   width="330.35541"
   height="68.790115"
   inkscape:version="1.0.1 (3bc2e813f5, 2020-09-07)">
  <metadata
     id="metadata855">
    <rdf:RDF>
      <cc:Work
         rdf:about="">
        <dc:format>image/svg+xml</dc:format>
        <dc:type
           rdf:resource="http://purl.org/dc/dcmitype/StillImage" />
        <dc:title></dc:title>
      </cc:Work>
    </rdf:RDF>
  </metadata>
  <defs
     id="defs853" />
  <sodipodi:namedview
     pagecolor="#ffffff"
     bordercolor="#666666"
     borderopacity="1"
     objecttolerance="10"
     gridtolerance="10"
     guidetolerance="10"
     inkscape:pageopacity="0"
     inkscape:pageshadow="2"
     inkscape:window-width="1920"
     inkscape:window-height="1017"
     id="namedview851"
     showgrid="false"
     fit-margin-top="0"
     fit-margin-left="0"
     fit-margin-right="0"
     fit-margin-bottom="0"
     inkscape:zoom="3.0855569"
     inkscape:cx="151.80516"
     inkscape:cy="1.7714026"
     inkscape:window-x="-8"
     inkscape:window-y="-8"
     inkscape:window-maximized="1"
     inkscape:current-layer="svg849" />
  <path
     style="color:#000000;font-style:normal;font-variant:normal;font-weight:normal;font-stretch:normal;font-size:medium;line-height:normal;font-family:sans-serif;font-variant-ligatures:normal;font-variant-position:normal;font-variant-caps:normal;font-variant-numeric:normal;font-variant-alternates:normal;font-variant-east-asian:normal;font-feature-settings:normal;font-variation-settings:normal;text-indent:0;text-align:start;text-decoration:none;text-decoration-line:none;text-decoration-style:solid;text-decoration-color:#000000;letter-spacing:normal;word-spacing:normal;text-transform:none;writing-mode:lr-tb;direction:ltr;text-orientation:mixed;dominant-baseline:auto;baseline-shift:baseline;text-anchor:start;white-space:normal;shape-padding:0;shape-margin:0;inline-size:0;clip-rule:nonzero;display:inline;overflow:visible;visibility:visible;opacity:1;isolation:auto;mix-blend-mode:normal;color-interpolation:sRGB;color-interpolation-filters:linearRGB;solid-color:#000000;solid-opacity:1;vector-effect:none;fill:#000000;fill-opacity:1;fill-rule:nonzero;stroke:#ffffff;stroke-width:1;stroke-linecap:round;stroke-linejoin:miter;stroke-miterlimit:4;stroke-dasharray:none;stroke-dashoffset:0;stroke-opacity:1;color-rendering:auto;image-rendering:auto;shape-rendering:auto;text-rendering:auto;enable-background:accumulate;stop-color:#000000;stop-opacity:1"
     d="m 23.951098,0.50119109 c -1.017344,0.017788 -1.995935,0.23890762 -2.896484,0.70312501 -2.146151,1.0771365 -3.49215,3.2220589 -4.16211,5.8164063 -0.670884,2.5979308 -0.741252,5.7336106 -0.326171,9.2812506 0.163888,1.400734 0.464793,2.910935 0.78125,4.429687 -1.714597,0.353558 -3.372503,0.742777 -4.876954,1.208985 -3.4100134,1.056715 -6.2451019,2.384096 -8.3457027,4.039062 -2.0956157,1.651038 -3.50891938,3.738992 -3.61328123,6.125 -0.12370844,2.072806 0.74546443,4.041156 2.20117193,5.710938 1.4600005,1.674706 3.5115715,3.133061 6.0273437,4.443359 A 1.55,1.55 0 0 0 10.830004,41.600801 1.55,1.55 0 0 0 10.171801,39.509004 C 7.8875736,38.319302 6.138754,37.028829 5.0487545,35.778535 3.958755,34.528242 3.5314604,33.400944 3.6014889,32.280488 l 0.00195,-0.01563 v -0.01758 c 0.051656,-1.256878 0.783807,-2.527615 2.4394562,-3.832024 1.6556492,-1.304409 4.1807169,-2.532887 7.3457029,-3.513672 1.426584,-0.442078 3.019382,-0.817868 4.683594,-1.15625 0.745074,2.852697 1.725094,5.837179 2.943359,8.921875 -3.348604,6.124334 -5.699961,12.066165 -6.882812,17.220703 -0.797126,3.473653 -1.077936,6.591487 -0.720703,9.240235 0.357232,2.648747 1.408277,4.929736 3.382812,6.246093 l 0.01563,0.0098 0.01563,0.0098 c 1.95449,1.237843 4.384487,1.334511 6.865235,0.675781 2.480747,-0.65873 5.114114,-2.05149 7.867187,-4.025391 a 1.55,1.55 0 0 0 0.357422,-2.164062 1.55,1.55 0 0 0 -2.164063,-0.355469 c -2.546927,1.826099 -4.913169,3.032558 -6.857422,3.548828 -1.934142,0.513586 -3.346666,0.360473 -4.390624,-0.292969 -1.018086,-0.686064 -1.737423,-1.974672 -2.019532,-4.066406 -0.283392,-2.101252 -0.07045,-4.906465 0.669922,-8.132812 0.956256,-4.167098 2.861196,-9.058897 5.449219,-14.15625 0.692382,1.549228 1.369827,3.095612 2.171875,4.664062 v 0.002 l 0.002,0.002 c 4.569775,8.885675 10.014095,16.281149 15.263672,21.128907 2.624789,2.423879 5.197997,4.22144 7.683594,5.222656 2.485597,1.001216 5.002167,1.202806 7.132812,0.121094 2.06508,-1.04893 3.371303,-3.107748 4.041016,-5.59375 0.669713,-2.486002 0.774602,-5.482234 0.423828,-8.873047 -0.701605,-6.781788 -3.258858,-15.160296 -7.474666,-23.795084 a 1.55,1.55 0 0 0 -2.072266,-0.712891 1.55,1.55 0 0 0 -0.712891,2.072266 c 4.084192,8.365212 6.527329,16.487485 7.175781,22.755859 0.324227,3.134187 0.192006,5.800846 -0.332031,7.746094 -0.524037,1.945248 -1.368204,3.085648 -2.453125,3.636719 -1.119354,0.568287 -2.602784,0.558159 -4.570312,-0.234375 -1.967528,-0.792534 -4.30057,-2.371926 -6.738282,-4.623047 C 37.269786,55.443003 31.964894,48.291474 27.535083,39.678926 l -0.002,-0.002 c -2.66e-4,-5.18e-4 2.67e-4,-0.0014 0,-0.002 -1.156746,-2.262341 -2.179388,-4.508483 -3.095703,-6.716797 0.944544,-1.669396 1.919489,-3.347285 3.015625,-5.027344 1.277876,-1.958613 2.602122,-3.822683 3.945313,-5.59375 2.229569,-0.04868 4.526595,-0.0237 6.878906,0.0957 9.645105,0.492097 18.328791,2.401604 24.431641,5.013672 3.051424,1.306034 5.450285,2.79351 6.986328,4.271484 1.518583,1.461176 2.137497,2.807587 2.101562,4.056641 -0.234331,2.03616 -2.708908,4.587079 -7.417968,6.470703 a 1.55,1.55 0 0 0 -0.863282,2.013672 1.55,1.55 0 0 0 2.015625,0.863281 c 5.258053,-2.103221 8.971493,-5.127041 9.367188,-9.083984 l 0.0039,-0.04492 0.002,-0.04492 c 0.09817,-2.388908 -1.124714,-4.602193 -3.060547,-6.464844 -1.935832,-1.86265 -4.62994,-3.480252 -7.916015,-4.886718 -6.572151,-2.812933 -15.539246,-4.753816 -25.494141,-5.261719 -1.549335,-0.07865 -3.030658,-0.05666 -4.533203,-0.06445 3.419823,-4.114734 6.894224,-7.615924 10.121094,-10.0800788 2.651629,-2.0248808 5.132277,-3.399701 7.169922,-4.0253906 2.025174,-0.6218605 3.488767,-0.5046598 4.521484,0.1289062 1.080652,0.7297068 1.769216,1.8810276 2.091797,3.7089844 0.324742,1.8402068 0.206502,4.2995218 -0.369141,7.1777348 a 1.55,1.55 0 0 0 1.216797,1.822266 1.55,1.55 0 0 0 1.822266,-1.214844 C 61.098893,13.666514 61.282606,10.873876 60.857348,8.4640817 60.43209,6.0542876 59.322686,3.9657135 57.415942,2.6945505 l -0.02148,-0.013672 -0.01953,-0.011719 C 55.358622,1.4131013 52.843532,1.4155526 50.281176,2.202363 47.71882,2.9891733 44.988922,4.5526345 42.140551,6.7277536 38.130988,9.7896019 33.902798,14.133054 29.851489,19.309785 c -3.350279,0.125365 -6.495041,0.446733 -9.447266,0.910157 -0.31331,-1.479647 -0.603416,-2.942996 -0.759766,-4.279297 -0.384919,-3.28986 -0.279115,-6.097541 0.25,-8.1464852 0.529116,-2.0489441 1.406019,-3.2498842 2.554688,-3.8242187 l 0.0098,-0.00391 0.0098,-0.00586 c 0.891823,-0.4624266 2.065636,-0.5180753 3.673828,0 1.608193,0.5180753 3.559894,1.6225418 5.666016,3.25 A 1.55,1.55 0 0 0 33.982348,6.9308786 1.55,1.55 0 0 0 33.703051,4.7570505 C 31.409174,2.9845087 29.210484,1.6909283 27.093676,1.0090036 26.035272,0.66804125 24.973292,0.48331834 23.951098,0.50119109 Z M 27.443286,22.567598 c -0.867728,1.209381 -1.748261,2.386005 -2.585938,3.669922 -0.656201,1.005765 -1.203731,2.005338 -1.808594,3.009765 -0.748036,-2.072293 -1.37938,-4.069813 -1.894531,-6.001953 1.990091,-0.303197 4.082797,-0.528247 6.289063,-0.677734 z"
     id="path873" />
  <path
     fill="#66595c"
     d="m 42.255395,33.384004 c 0.5,2.4 -1,4.8 -3.4,5.3 -2.4,0.5 -4.7,-1 -5.2,-3.4 -0.5,-2.4 1,-4.8 3.4,-5.3 2.3,-0.5 4.7,1 5.2,3.4 m 55.9,24.6 21.000005,-45.6 c 0.5,-1 1.2,-1.7 2.4,-1.7 h 0.2 c 1.2,0 2,0.7 2.3,1.7 l 21,45.4 0.3,1 c 0,1 -0.8,1.8 -1.8,1.8 -0.8,0 -1.5,-0.6 -1.8,-1.4 l -5.8,-12.6 h -29 l -5.7,12.8 c -0.3,0.7 -1,1.2 -1.700005,1.2 -1,0 -1.7,-0.7 -1.7,-1.5 0,-0.3 0,-0.7 0.3,-1 m 36.400005,-14.7 -13,-28.6 -13,28.5 h 26 m 40,-28.7 h -15.7 c -1,0 -1.7,-0.8 -1.7,-1.7 0,-1 0.8,-1.7 1.7,-1.7 h 35 c 1,0 1.8,0.8 1.8,1.7 0,0.9 -0.8,1.7 -1.7,1.7 h -15.6 v 44.2 c 0,1 -1,1.8 -2,1.8 -1,0 -1.7,-0.8 -1.7,-1.8 v -44.2 m 36.2,21.3 c 0,-13.5 10,-25.6 25,-25.6 14.8,0 24.5,11.8 24.5,25.2 v 0.2 c 0,13.4 -10,25.4 -24.8,25.4 -14.8,0 -24.7,-11.9 -24.7,-25.2 m 45.7,0 c 0,-12.3 -8.8,-22.3 -21,-22.3 -12,0 -20.8,10 -20.8,22 v 0.2 c 0,12 8.7,22 21,22 12,0 20.7,-9.7 20.7,-22 m 26.9,-23 c 0,-1 0.8,-1.8 1.8,-1.8 h 0.4 c 0.7,0 1.3,0.4 1.8,1 l 19.2,28.4 19.3,-28.5 c 0.3,-0.6 1,-1 1.7,-1 h 0.3 c 1,0 2,0.8 2,1.8 v 46 c 0,1 -1,1.8 -2,1.8 -1,0 -1.8,-0.8 -1.8,-1.8 v -41.1 l -18,26.3 c -0.5,0.6 -1,1 -1.6,1 -0.6,0 -1,-0.4 -1.5,-1 l -18,-26.3 v 41.3 c 0,1 -0.8,1.7 -1.7,1.7 -1,0 -1.8,-0.7 -1.8,-1.7 v -46"
     id="path847"
     style="fill:#000000;fill-opacity:1;stroke:#ffffff;stroke-opacity:1" />
</svg>
