<?xml version="1.0" encoding="UTF-8" standalone="no"?>
<svg
   xmlns:dc="http://purl.org/dc/elements/1.1/"
   xmlns:cc="http://creativecommons.org/ns#"
   xmlns:rdf="http://www.w3.org/1999/02/22-rdf-syntax-ns#"
   xmlns:svg="http://www.w3.org/2000/svg"
   xmlns="http://www.w3.org/2000/svg"
   xmlns:sodipodi="http://sodipodi.sourceforge.net/DTD/sodipodi-0.dtd"
   xmlns:inkscape="http://www.inkscape.org/namespaces/inkscape"
   viewBox="0 0 503.48642 107.59946"
   version="1.1"
   id="svg849"
   sodipodi:docname="atom.svg"
   width="503.48642"
   height="107.59946"
   inkscape:version="1.0.1 (3bc2e813f5, 2020-09-07)">
  <metadata
     id="metadata855">
    <rdf:RDF>
      <cc:Work
         rdf:about="">
        <dc:format>image/svg+xml</dc:format>
        <dc:type
           rdf:resource="http://purl.org/dc/dcmitype/StillImage" />
        <dc:title></dc:title>
      </cc:Work>
    </rdf:RDF>
  </metadata>
  <defs
     id="defs853" />
  <sodipodi:namedview
     pagecolor="#000000"
     bordercolor="#666666"
     borderopacity="1"
     objecttolerance="10"
     gridtolerance="10"
     guidetolerance="10"
     inkscape:pageopacity="0"
     inkscape:pageshadow="2"
     inkscape:window-width="1920"
     inkscape:window-height="1017"
     id="namedview851"
     showgrid="false"
     fit-margin-top="0"
     fit-margin-left="0"
     fit-margin-right="0"
     fit-margin-bottom="0"
     inkscape:zoom="2.1818182"
     inkscape:cx="235.00257"
     inkscape:cy="-17.125515"
     inkscape:window-x="-8"
     inkscape:window-y="-8"
     inkscape:window-maximized="1"
     inkscape:current-layer="layer1"
     inkscape:document-rotation="0" />
  <g
     inkscape:groupmode="layer"
     id="layer2"
     inkscape:label="Layer 2"
     transform="translate(1.7431863,1.7432552)">
    <circle
       style="fill:#ffffff;fill-opacity:1;stroke:#ffffff;stroke-width:5;stroke-linecap:round;stroke-linejoin:round;stroke-miterlimit:4;stroke-dasharray:none;paint-order:stroke fill markers;stop-color:#000000"
       id="path1083"
       cx="356.35416"
       cy="54.083332"
       r="35.979168" />
    <path
       style="fill:#ffffff;fill-opacity:1;stroke:#000000;stroke-width:1px;stroke-linecap:butt;stroke-linejoin:miter;stroke-opacity:1"
       d="m 183.79166,18.677083 -23.14583,49.84375 h 47.09375 z"
       id="path1085" />
    <path
       style="fill:#ffffff;fill-opacity:1;stroke:none;stroke-width:1px;stroke-linecap:butt;stroke-linejoin:miter;stroke-opacity:1"
       d="m 52.274802,5.048724 9.398627,7.089482 26.496856,-5.0492311 6.425407,12.1476221 -0.558737,6.377957 -3.072437,12.727024 20.007852,11.945313 -8.82292,18.104166 -1.04879,1.816559 -10.595739,4.385264 -4.782956,23.768618 -15.232259,1.944542 -13.895384,-9.965784 -7.051354,5.322504 -23.876302,-0.04297 -4.006345,-22.815286 -0.4141,-2.39677 -8.856898,-4.092631 -9.0664064,-15.440105 5.5,-14.322916 L 24.864583,33.572916 29.447916,32.65625 27.958333,6.1874999 37.46875,3.2083333 Z"
       id="path1087"
       sodipodi:nodetypes="ccccccccccccccccccccccccc" />
  </g>
  <g
     inkscape:groupmode="layer"
     id="layer1"
     inkscape:label="Layer 1"
     transform="translate(1.7431863,1.7432552)">
    <path
       style="color:#000000;font-style:normal;font-variant:normal;font-weight:normal;font-stretch:normal;font-size:medium;line-height:normal;font-family:sans-serif;font-variant-ligatures:normal;font-variant-position:normal;font-variant-caps:normal;font-variant-numeric:normal;font-variant-alternates:normal;font-variant-east-asian:normal;font-feature-settings:normal;font-variation-settings:normal;text-indent:0;text-align:start;text-decoration:none;text-decoration-line:none;text-decoration-style:solid;text-decoration-color:#000000;letter-spacing:normal;word-spacing:normal;text-transform:none;writing-mode:lr-tb;direction:ltr;text-orientation:mixed;dominant-baseline:auto;baseline-shift:baseline;text-anchor:start;white-space:normal;shape-padding:0;shape-margin:0;inline-size:0;clip-rule:nonzero;display:inline;overflow:visible;visibility:visible;opacity:1;isolation:auto;mix-blend-mode:normal;color-interpolation:sRGB;color-interpolation-filters:linearRGB;solid-color:#000000;solid-opacity:1;vector-effect:none;fill:#000000;fill-opacity:1;fill-rule:nonzero;stroke:#ffffff;stroke-width:5;stroke-linecap:round;stroke-linejoin:round;stroke-miterlimit:4;stroke-dasharray:none;stroke-dashoffset:0;stroke-opacity:1;paint-order:stroke fill markers;color-rendering:auto;image-rendering:auto;shape-rendering:auto;text-rendering:auto;enable-background:accumulate;stop-color:#000000;stop-opacity:1"
       d="m 36.250502,0.75856349 c -1.539772,0.0269225 -3.020891,0.36159181 -4.383891,1.06419481 -3.248246,1.6302693 -5.285444,4.8766554 -6.299443,8.8032557 -1.015397,3.932024 -1.121901,8.677943 -0.493667,14.047373 0.248048,2.120041 0.703474,4.405762 1.182439,6.704426 -2.59508,0.535118 -5.104356,1.124209 -7.381375,1.829825 -5.161129,1.599361 -9.4520959,3.60838 -12.6314004,6.113207 -3.1717594,2.498882 -5.31082488,5.659045 -5.46877879,9.270319 -0.18723538,3.137237 1.12827649,6.116377 3.33152109,8.643628 2.2097421,2.534703 5.3148389,4.741955 9.1225141,6.725119 a 2.3459583,2.3459583 0 0 0 3.163023,-0.996204 2.3459583,2.3459583 0 0 0 -0.996205,-3.16598 C 11.938012,57.997087 9.2911362,56.043929 7.6413985,54.151582 5.9916608,52.259237 5.3449412,50.553047 5.4509309,48.857213 l 0.00295,-0.02366 v -0.02661 c 0.078183,-1.902312 1.1863088,-3.8256 3.6921694,-5.799851 2.5058607,-1.974251 6.3276057,-3.833579 11.1178797,-5.318018 2.159165,-0.669095 4.569899,-1.237861 7.08872,-1.75001 1.127686,4.317619 2.610967,8.834696 4.454837,13.50345 -5.068184,9.269311 -8.627013,18.2624 -10.417284,26.063904 -1.206467,5.257449 -1.631479,9.976358 -1.090799,13.985295 0.540678,4.008935 2.131457,7.461261 5.119959,9.453596 l 0.02366,0.01483 0.02366,0.01483 c 2.958163,1.873501 6.636016,2.019811 10.390681,1.022809 3.754664,-0.997002 7.740321,-3.104974 11.907157,-6.092516 a 2.3459583,2.3459583 0 0 0 0.540965,-3.275354 2.3459583,2.3459583 0 0 0 -3.275355,-0.53801 c -3.854829,2.76384 -7.436187,4.589841 -10.378856,5.371227 -2.927365,0.777324 -5.065251,0.545584 -6.645304,-0.443415 -1.540895,-1.038372 -2.629627,-2.988708 -3.056605,-6.154593 -0.42892,-3.18029 -0.106628,-7.42604 1.013941,-12.309186 1.447314,-6.306992 4.330482,-13.710835 8.247511,-21.425788 1.047935,2.34479 2.073262,4.685275 3.287179,7.059158 v 0.003 l 0.003,0.003 c 6.916453,13.44866 15.156548,24.641869 23.101896,31.979055 3.972674,3.668593 7.86728,6.389244 11.629285,7.904604 3.762004,1.51537 7.570887,1.82048 10.795664,0.18328 3.125543,-1.58758 5.102539,-4.703647 6.116164,-8.466264 1.013625,-3.762618 1.172377,-8.297479 0.641473,-13.429548 C 88.723605,70.102111 84.853148,57.421059 78.472432,44.352122 a 2.3459583,2.3459583 0 0 0 -3.13642,-1.078976 2.3459583,2.3459583 0 0 0 -1.078975,3.136419 c 6.181512,12.660928 9.879252,24.954163 10.860698,34.441482 0.490725,4.743659 0.290606,8.779705 -0.502536,11.72388 -0.793141,2.944175 -2.070806,4.670194 -3.712857,5.504252 -1.694167,0.860115 -3.93937,0.844786 -6.917266,-0.354731 C 71.00718,96.52493 67.476071,94.134487 63.786542,90.727367 56.408622,83.914177 48.379554,73.090184 41.67494,60.054908 l -0.003,-0.003 c -4.03e-4,-7.84e-4 4.04e-4,-0.0021 0,-0.003 -1.75076,-3.424101 -3.298551,-6.823686 -4.685413,-10.166016 1.429588,-2.526667 2.905188,-5.066188 4.564213,-7.608993 1.934093,-2.964403 3.938368,-5.785713 5.971316,-8.466261 3.374501,-0.07368 6.851099,-0.03587 10.411372,0.144844 14.598074,0.744799 27.74102,3.634879 36.977814,7.5883 4.618396,1.976711 8.249128,4.228037 10.573958,6.464983 2.29841,2.211521 3.23515,4.249343 3.18076,6.139813 -0.35466,3.081772 -4.09999,6.942643 -11.227255,9.793548 a 2.3459583,2.3459583 0 0 0 -1.306596,3.047736 2.3459583,2.3459583 0 0 0 3.050692,1.306595 C 107.14098,65.110186 112.76135,60.53357 113.36024,54.544652 l 0.006,-0.06799 0.003,-0.06799 c 0.14859,-3.615664 -1.70227,-6.965518 -4.6322,-9.784681 -2.92992,-2.81916 -7.00751,-5.267436 -11.981061,-7.396152 -9.947092,-4.257435 -23.518983,-7.195003 -38.585931,-7.963725 -2.344952,-0.119039 -4.586966,-0.08576 -6.8611,-0.09755 5.175976,-6.227738 10.434556,-11.526864 15.318493,-15.256416 4.013298,-3.0647 7.767812,-5.1455202 10.851831,-6.0925149 3.065145,-0.9411992 5.280324,-0.7638134 6.843364,0.1951024 1.63559,1.1044269 2.677746,2.8469755 3.165979,5.6136275 0.491504,2.785193 0.312546,6.507419 -0.558702,10.863656 a 2.3459583,2.3459583 0 0 0 1.841648,2.758039 2.3459583,2.3459583 0 0 0 2.758039,-1.838693 C 92.474488,20.684563 92.752542,16.457845 92.108905,12.81057 91.465267,9.1632944 89.786161,6.0021926 86.900263,4.0782601 l -0.03251,-0.020693 -0.02956,-0.017737 C 83.786465,2.1387592 79.979822,2.1424693 76.101641,3.3333237 72.22346,4.524178 68.091701,6.8905102 63.78063,10.1826 57.71207,14.816773 51.312614,21.390681 45.18087,29.225775 c -5.070719,0.189742 -9.830384,0.67614 -14.29864,1.377542 -0.474201,-2.239478 -0.913283,-4.454288 -1.149922,-6.476808 -0.582583,-4.979274 -0.422447,-9.228759 0.37838,-12.329881 0.800829,-3.1011205 2.12804,-4.9187692 3.866576,-5.7880368 l 0.01483,-0.00592 0.01483,-0.00887 c 1.349793,-0.6998926 3.126384,-0.7841181 5.560417,0 2.434035,0.7841181 5.387976,2.4557519 8.575637,4.9189448 A 2.3459583,2.3459583 0 0 0 51.433014,10.490034 2.3459583,2.3459583 0 0 0 51.010292,7.1998982 C 47.53846,4.5171181 44.210696,2.5592563 41.006861,1.5271486 39.404944,1.0110948 37.797614,0.7315127 36.250502,0.75856349 Z M 41.536003,34.156545 c -1.313325,1.830424 -2.64603,3.61127 -3.913872,5.554506 -0.993175,1.522247 -1.821873,3.035122 -2.737346,4.555344 -1.132169,-3.13646 -2.087722,-6.15975 -2.867414,-9.084085 3.012046,-0.458895 6.179401,-0.799513 9.518632,-1.025765 z"
       id="path873" />
    <path
       fill="#66595c"
       d="m 63.954449,50.527408 c 0.756761,3.632451 -1.513522,7.264903 -5.145973,8.021664 -3.632452,0.75676 -7.113551,-1.513522 -7.870312,-5.145973 -0.756761,-3.632452 1.513521,-7.264904 5.145973,-8.021664 3.481099,-0.756761 7.113551,1.513521 7.870312,5.145973 M 148.5603,87.760037 180.34426,18.743456 c 0.75676,-1.513521 1.81623,-2.572986 3.63245,-2.572986 h 0.30271 c 1.81622,0 3.02704,1.059465 3.48109,2.572986 l 31.78396,68.713876 0.45405,1.513522 c 0,1.513521 -1.21081,2.724339 -2.72434,2.724339 -1.21081,0 -2.27028,-0.908113 -2.72433,-2.118931 l -8.77843,-19.07037 H 161.8793 l -8.62708,19.373075 c -0.45405,1.059465 -1.51352,1.816226 -2.57299,1.816226 -1.51352,0 -2.57299,-1.059466 -2.57299,-2.270283 0,-0.454056 0,-1.059465 0.45406,-1.513521 M 203.65249,65.662623 183.97671,22.375908 164.30093,65.511271 h 39.35156 m 60.54086,-43.438067 h -23.76229 c -1.51352,0 -2.57298,-1.210818 -2.57298,-2.572987 0,-1.513521 1.21081,-2.572987 2.57298,-2.572987 h 52.97326 c 1.51352,0 2.72433,1.210818 2.72433,2.572987 0,1.362169 -1.21081,2.572987 -2.57298,2.572987 h -23.61094 v 66.89765 c 0,1.513521 -1.51352,2.724339 -3.02704,2.724339 -1.51352,0 -2.57299,-1.210818 -2.57299,-2.724339 v -66.89765 m 54.78948,32.238007 c 0,-20.43254 15.13522,-38.74615 37.83804,-38.74615 22.40012,0 37.08128,17.859554 37.08128,38.140742 v 0.302704 c 0,20.281188 -15.13522,38.443446 -37.53534,38.443446 -22.40012,0 -37.38398,-18.010906 -37.38398,-38.140742 m 69.16793,0 c 0,-18.616314 -13.31899,-33.751529 -31.78395,-33.751529 -18.16226,0 -31.48125,15.135215 -31.48125,33.297473 v 0.302704 c 0,18.162258 13.16764,33.297473 31.78396,33.297473 18.16225,0 31.32989,-14.681158 31.32989,-33.297473 m 40.71373,-34.810994 c 0,-1.513522 1.21082,-2.724339 2.72434,-2.724339 h 0.60541 c 1.05946,0 1.96757,0.605409 2.72434,1.513522 l 29.05961,42.98401 29.21096,-43.135362 c 0.45406,-0.908113 1.51352,-1.513522 2.57299,-1.513522 h 0.45406 c 1.51352,0 3.02704,1.210817 3.02704,2.724339 v 69.621989 c 0,1.513521 -1.51352,2.724338 -3.02704,2.724338 -1.51353,0 -2.72434,-1.210817 -2.72434,-2.724338 V 26.613768 l -27.24339,39.805615 c -0.75676,0.908113 -1.51352,1.513522 -2.42163,1.513522 -0.90812,0 -1.51353,-0.605409 -2.27029,-1.513522 L 434.31317,26.613768 v 62.508438 c 0,1.513521 -1.21082,2.572987 -2.57299,2.572987 -1.51352,0 -2.72434,-1.059466 -2.72434,-2.572987 V 19.500217"
       id="path847"
       style="fill:#000000;fill-opacity:1;stroke:#ffffff;stroke-width:5;stroke-linecap:round;stroke-linejoin:round;stroke-miterlimit:4;stroke-dasharray:none;stroke-opacity:1;paint-order:stroke fill markers" />
    <g
       id="g1071"
       style="opacity:1">
      <path
         style="color:#000000;font-style:normal;font-variant:normal;font-weight:normal;font-stretch:normal;font-size:medium;line-height:normal;font-family:sans-serif;font-variant-ligatures:normal;font-variant-position:normal;font-variant-caps:normal;font-variant-numeric:normal;font-variant-alternates:normal;font-variant-east-asian:normal;font-feature-settings:normal;font-variation-settings:normal;text-indent:0;text-align:start;text-decoration:none;text-decoration-line:none;text-decoration-style:solid;text-decoration-color:#000000;letter-spacing:normal;word-spacing:normal;text-transform:none;writing-mode:lr-tb;direction:ltr;text-orientation:mixed;dominant-baseline:auto;baseline-shift:baseline;text-anchor:start;white-space:normal;shape-padding:0;shape-margin:0;inline-size:0;clip-rule:nonzero;display:inline;overflow:visible;visibility:visible;isolation:auto;mix-blend-mode:normal;color-interpolation:sRGB;color-interpolation-filters:linearRGB;solid-color:#000000;solid-opacity:1;vector-effect:none;fill:#000000;fill-opacity:1;fill-rule:nonzero;stroke:none;stroke-width:5;stroke-linecap:round;stroke-linejoin:round;stroke-miterlimit:4;stroke-dasharray:none;stroke-dashoffset:0;stroke-opacity:1;paint-order:stroke fill markers;color-rendering:auto;image-rendering:auto;shape-rendering:auto;text-rendering:auto;enable-background:accumulate;stop-color:#000000;stop-opacity:1"
         d="m 36.250502,0.75856349 c -1.539772,0.0269225 -3.020891,0.36159181 -4.383891,1.06419481 -3.248246,1.6302693 -5.285444,4.8766554 -6.299443,8.8032557 -1.015397,3.932024 -1.121901,8.677943 -0.493667,14.047373 0.248048,2.120041 0.703474,4.405762 1.182439,6.704426 -2.59508,0.535118 -5.104356,1.124209 -7.381375,1.829825 -5.161129,1.599361 -9.4520959,3.60838 -12.6314004,6.113207 -3.1717594,2.498882 -5.31082488,5.659045 -5.46877879,9.270319 -0.18723538,3.137237 1.12827649,6.116377 3.33152109,8.643628 2.2097421,2.534703 5.3148389,4.741955 9.1225141,6.725119 1.148594,0.597722 2.564267,0.151852 3.163023,-0.996204 0.599726,-1.149306 0.153581,-2.567174 -0.996205,-3.16598 C 11.938012,57.997087 9.2911362,56.043929 7.6413985,54.151582 5.9916608,52.259237 5.3449412,50.553047 5.4509309,48.857213 l 0.00295,-0.02366 v -0.02661 c 0.078183,-1.902312 1.1863088,-3.8256 3.6921694,-5.799851 2.5058607,-1.974251 6.3276057,-3.833579 11.1178797,-5.318018 2.159165,-0.669095 4.569899,-1.237861 7.08872,-1.75001 1.127686,4.317619 2.610967,8.834696 4.454837,13.50345 -5.068184,9.269311 -8.627013,18.2624 -10.417284,26.063904 -1.206467,5.257449 -1.631479,9.976358 -1.090799,13.985295 0.540678,4.008935 2.131457,7.461261 5.119959,9.453596 l 0.02366,0.01483 0.02366,0.01483 c 2.958163,1.873501 6.636016,2.019811 10.390681,1.022809 3.754664,-0.997002 7.740321,-3.104974 11.907157,-6.092516 1.054581,-0.754624 1.296887,-2.221703 0.540965,-3.275354 -0.755548,-1.053593 -2.222474,-1.29455 -3.275355,-0.53801 -3.854829,2.76384 -7.436187,4.589841 -10.378856,5.371227 -2.927365,0.777324 -5.065251,0.545584 -6.645304,-0.443415 -1.540895,-1.038372 -2.629627,-2.988708 -3.056605,-6.154593 -0.42892,-3.18029 -0.106628,-7.42604 1.013941,-12.309186 1.447314,-6.306992 4.330482,-13.710835 8.247511,-21.425788 1.047935,2.34479 2.073262,4.685275 3.287179,7.059158 v 0.003 l 0.003,0.003 c 6.916453,13.44866 15.156548,24.641869 23.101896,31.979055 3.972674,3.668593 7.86728,6.389244 11.629285,7.904604 3.762004,1.51537 7.570887,1.82048 10.795664,0.18328 3.125543,-1.58758 5.102539,-4.703647 6.116164,-8.466264 1.013625,-3.762618 1.172377,-8.297479 0.641473,-13.429548 -1.061874,-10.264317 -4.932331,-22.945369 -11.313047,-36.014306 -0.568389,-1.163777 -1.972348,-1.64676 -3.13642,-1.078976 -1.163776,0.568389 -1.646758,1.972348 -1.078975,3.136419 6.181512,12.660928 9.879252,24.954163 10.860698,34.441482 0.490725,4.743659 0.290606,8.779705 -0.502536,11.72388 -0.793141,2.944175 -2.070806,4.670194 -3.712857,5.504252 -1.694167,0.860115 -3.93937,0.844786 -6.917266,-0.354731 C 71.00718,96.52493 67.476071,94.134487 63.786542,90.727367 56.408622,83.914177 48.379554,73.090184 41.67494,60.054908 l -0.003,-0.003 c -4.03e-4,-7.84e-4 4.04e-4,-0.0021 0,-0.003 -1.75076,-3.424101 -3.298551,-6.823686 -4.685413,-10.166016 1.429588,-2.526667 2.905188,-5.066188 4.564213,-7.608993 1.934093,-2.964403 3.938368,-5.785713 5.971316,-8.466261 3.374501,-0.07368 6.851099,-0.03587 10.411372,0.144844 14.598074,0.744799 27.74102,3.634879 36.977814,7.5883 4.618396,1.976711 8.249128,4.228037 10.573958,6.464983 2.29841,2.211521 3.23515,4.249343 3.18076,6.139813 -0.35466,3.081772 -4.09999,6.942643 -11.227255,9.793548 -1.20192,0.481311 -1.786689,1.845329 -1.306596,3.047736 0.481306,1.203537 1.847455,1.788652 3.050692,1.306595 7.958179,-3.183271 13.578549,-7.759887 14.177439,-13.748805 l 0.006,-0.06799 0.003,-0.06799 c 0.14859,-3.615664 -1.70227,-6.965518 -4.6322,-9.784681 -2.92992,-2.81916 -7.00751,-5.267436 -11.981061,-7.396152 -9.947092,-4.257435 -23.518983,-7.195003 -38.585931,-7.963725 -2.344952,-0.119039 -4.586966,-0.08576 -6.8611,-0.09755 5.175976,-6.227738 10.434556,-11.526864 15.318493,-15.256416 4.013298,-3.0647 7.767812,-5.1455202 10.851831,-6.0925149 3.065145,-0.9411992 5.280324,-0.7638134 6.843364,0.1951024 1.63559,1.1044269 2.677746,2.8469755 3.165979,5.6136275 0.491504,2.785193 0.312546,6.507419 -0.558702,10.863656 -0.252518,1.270062 0.571784,2.50453 1.841648,2.758039 1.269112,0.252655 2.503139,-0.57003 2.758039,-1.838693 0.944888,-4.724802 1.222942,-8.95152 0.579305,-12.598795 C 91.465267,9.1632944 89.786161,6.0021926 86.900263,4.0782601 l -0.03251,-0.020693 -0.02956,-0.017737 C 83.786465,2.1387592 79.979822,2.1424693 76.101641,3.3333237 72.22346,4.524178 68.091701,6.8905102 63.78063,10.1826 57.71207,14.816773 51.312614,21.390681 45.18087,29.225775 c -5.070719,0.189742 -9.830384,0.67614 -14.29864,1.377542 -0.474201,-2.239478 -0.913283,-4.454288 -1.149922,-6.476808 -0.582583,-4.979274 -0.422447,-9.228759 0.37838,-12.329881 0.800829,-3.1011205 2.12804,-4.9187692 3.866576,-5.7880368 l 0.01483,-0.00592 0.01483,-0.00887 c 1.349793,-0.6998926 3.126384,-0.7841181 5.560417,0 2.434035,0.7841181 5.387976,2.4557519 8.575637,4.9189448 1.025314,0.791543 2.498119,0.602313 3.290036,-0.422712 C 52.224622,9.4647007 52.035384,7.9918189 51.010292,7.1998982 47.53846,4.5171181 44.210696,2.5592563 41.006861,1.5271486 39.404944,1.0110948 37.797614,0.7315127 36.250502,0.75856349 Z M 41.536003,34.156545 c -1.313325,1.830424 -2.64603,3.61127 -3.913872,5.554506 -0.993175,1.522247 -1.821873,3.035122 -2.737346,4.555344 -1.132169,-3.13646 -2.087722,-6.15975 -2.867414,-9.084085 3.012046,-0.458895 6.179401,-0.799513 9.518632,-1.025765 z"
         id="path1075" />
    </g>
    <path
       fill="#66595c"
       d="m 63.954449,50.527408 c 0.756761,3.632451 -1.513522,7.264903 -5.145973,8.021664 -3.632452,0.75676 -7.113551,-1.513522 -7.870312,-5.145973 -0.756761,-3.632452 1.513521,-7.264904 5.145973,-8.021664 3.481099,-0.756761 7.113551,1.513521 7.870312,5.145973 M 148.5603,87.760037 180.34426,18.743456 c 0.75676,-1.513521 1.81623,-2.572986 3.63245,-2.572986 h 0.30271 c 1.81622,0 3.02704,1.059465 3.48109,2.572986 l 31.78396,68.713876 0.45405,1.513522 c 0,1.513521 -1.21081,2.724339 -2.72434,2.724339 -1.21081,0 -2.27028,-0.908113 -2.72433,-2.118931 l -8.77843,-19.07037 H 161.8793 l -8.62708,19.373075 c -0.45405,1.059465 -1.51352,1.816226 -2.57299,1.816226 -1.51352,0 -2.57299,-1.059466 -2.57299,-2.270283 0,-0.454056 0,-1.059465 0.45406,-1.513521 M 203.65249,65.662623 183.97671,22.375908 164.30093,65.511271 h 39.35156 m 60.54086,-43.438067 h -23.76229 c -1.51352,0 -2.57298,-1.210818 -2.57298,-2.572987 0,-1.513521 1.21081,-2.572987 2.57298,-2.572987 h 52.97326 c 1.51352,0 2.72433,1.210818 2.72433,2.572987 0,1.362169 -1.21081,2.572987 -2.57298,2.572987 h -23.61094 v 66.89765 c 0,1.513521 -1.51352,2.724339 -3.02704,2.724339 -1.51352,0 -2.57299,-1.210818 -2.57299,-2.724339 v -66.89765 m 54.78948,32.238007 c 0,-20.43254 15.13522,-38.74615 37.83804,-38.74615 22.40012,0 37.08128,17.859554 37.08128,38.140742 v 0.302704 c 0,20.281188 -15.13522,38.443446 -37.53534,38.443446 -22.40012,0 -37.38398,-18.010906 -37.38398,-38.140742 m 69.16793,0 c 0,-18.616314 -13.31899,-33.751529 -31.78395,-33.751529 -18.16226,0 -31.48125,15.135215 -31.48125,33.297473 v 0.302704 c 0,18.162258 13.16764,33.297473 31.78396,33.297473 18.16225,0 31.32989,-14.681158 31.32989,-33.297473 m 40.71373,-34.810994 c 0,-1.513522 1.21082,-2.724339 2.72434,-2.724339 h 0.60541 c 1.05946,0 1.96757,0.605409 2.72434,1.513522 l 29.05961,42.98401 29.21096,-43.135362 c 0.45406,-0.908113 1.51352,-1.513522 2.57299,-1.513522 h 0.45406 c 1.51352,0 3.02704,1.210817 3.02704,2.724339 v 69.621989 c 0,1.513521 -1.51352,2.724338 -3.02704,2.724338 -1.51353,0 -2.72434,-1.210817 -2.72434,-2.724338 V 26.613768 l -27.24339,39.805615 c -0.75676,0.908113 -1.51352,1.513522 -2.42163,1.513522 -0.90812,0 -1.51353,-0.605409 -2.27029,-1.513522 L 434.31317,26.613768 v 62.508438 c 0,1.513521 -1.21082,2.572987 -2.57299,2.572987 -1.51352,0 -2.72434,-1.059466 -2.72434,-2.572987 V 19.500217"
       id="path1089"
       style="fill:#000000;fill-opacity:1;stroke:none;stroke-width:5;stroke-linecap:round;stroke-linejoin:round;stroke-miterlimit:4;stroke-dasharray:none;stroke-opacity:1;paint-order:stroke fill markers" />
  </g>
</svg>
