<?xml version="1.0" encoding="UTF-8" standalone="no"?>
<svg
   xmlns:dc="http://purl.org/dc/elements/1.1/"
   xmlns:cc="http://creativecommons.org/ns#"
   xmlns:rdf="http://www.w3.org/1999/02/22-rdf-syntax-ns#"
   xmlns:svg="http://www.w3.org/2000/svg"
   xmlns="http://www.w3.org/2000/svg"
   xmlns:sodipodi="http://sodipodi.sourceforge.net/DTD/sodipodi-0.dtd"
   xmlns:inkscape="http://www.inkscape.org/namespaces/inkscape"
   role="img"
   viewBox="0 0 498.82714 350.59869"
   version="1.1"
   id="svg6"
   sodipodi:docname="jsfiddle.svg"
   width="498.82715"
   height="350.59869"
   inkscape:version="1.0.1 (3bc2e813f5, 2020-09-07)">
  <metadata
     id="metadata12">
    <rdf:RDF>
      <cc:Work
         rdf:about="">
        <dc:format>image/svg+xml</dc:format>
        <dc:type
           rdf:resource="http://purl.org/dc/dcmitype/StillImage" />
        <dc:title>JSFiddle</dc:title>
      </cc:Work>
    </rdf:RDF>
  </metadata>
  <defs
     id="defs10" />
  <sodipodi:namedview
     pagecolor="#000000"
     bordercolor="#666666"
     borderopacity="1"
     objecttolerance="10"
     gridtolerance="10"
     guidetolerance="10"
     inkscape:pageopacity="0"
     inkscape:pageshadow="2"
     inkscape:window-width="1920"
     inkscape:window-height="1017"
     id="namedview8"
     showgrid="false"
     fit-margin-top="0"
     fit-margin-left="0"
     fit-margin-right="0"
     fit-margin-bottom="0"
     inkscape:zoom="1.1067708"
     inkscape:cx="23.663837"
     inkscape:cy="234.32705"
     inkscape:window-x="-8"
     inkscape:window-y="-8"
     inkscape:window-maximized="1"
     inkscape:current-layer="svg6"
     inkscape:document-rotation="0" />
  <title
     id="title2">JSFiddle</title>
  <path
     style="fill:#ffffff;fill-opacity:1;stroke:none;stroke-width:1px;stroke-linecap:butt;stroke-linejoin:miter;stroke-opacity:1"
     d="m 103.31946,79.375932 29.81647,-2.710588 27.55765,14.004706 40.20706,-50.145882 61.89176,-28.009412 61.89176,1.807059 46.53177,25.298823 36.14117,37.044706 19.42589,41.110586 7.68,39.7553 31.62353,28.46117 23.94352,48.79059 -17.61882,63.69882 -43.36941,36.59294 -111.58588,5.87294 L 62.660638,332.81593 15.225345,277.70064 10.707698,224.84417 36.458285,174.69828 55.432403,162.50064 53.625344,124.5524 67.63005,104.67476 Z"
     id="path1664" />
  <path
     d="m 288.50823,2.5 c -56.56379,0 -105,31.769547 -130.65844,77.757201 -11.0288,-6.522633 -23.43621,-11.111111 -37.16049,-11.111111 -40.761317,0 -74.074074,33.04527 -74.074074,73.64198 0,5.41152 1.296296,10.55555 2.427984,15.67901 C 21.265432,177.15021 2.5,208.26132 2.5,244.10494 c 0,56.85185 46.111111,103.12757 103.04527,103.99177 a 8.6625514,8.6625514 0 0 0 0.16461,0 h 288.06584 c 56.50206,0.34979 102.55144,-45.39095 102.55144,-101.58436 0,-40.04116 -23.72428,-74.11523 -57.59259,-90.74075 0.0617,-1.27572 0.20576,-2.36625 0.20576,-3.786 C 438.94033,69.516461 371.45062,2.5 288.52881,2.5 Z m 0,17.345679 c 73.66255,0 133.12757,59.09465 133.12757,132.139921 0,2.36625 -0.24691,4.97942 -0.41152,7.96296 a 8.6625514,8.6625514 0 0 0 5.34979,8.51852 84.444444,84.444444 0 0 1 52.38683,78.04527 84.238683,84.238683 0 0 1 -85.0823,84.27983 8.6625514,8.6625514 0 0 0 -0.0617,0 H 105.79218 c -47.695473,-0.76132 -85.925925,-39.17695 -85.925925,-86.68724 0,-31.79013 17.160494,-59.32099 42.798354,-74.4856 a 8.6625514,8.6625514 0 0 0 3.847736,-10.0823 55.576132,55.576132 0 0 1 -2.572016,-16.74897 56.399177,56.399177 0 0 1 56.748971,-56.296301 56.584362,56.584362 0 0 1 34.69136,11.851852 8.6625514,8.6625514 0 0 0 13.08642,-3.08642 132.96296,132.96296 0 0 1 120.04115,-75.432098 z M 178.83745,161.34774 c -32.63375,0 -59.87654,24.95884 -59.87654,56.31687 0,31.33745 27.24279,56.2963 59.87654,56.2963 29.03292,0 44.89712,-19.15638 51.35802,-26.04939 a 8.6679809,8.6679809 0 1 0 -12.61317,-11.893 c -7.77777,8.2716 -16.85185,20.61728 -38.74485,20.61728 -23.90947,0 -42.55144,-17.69547 -42.55144,-38.97119 0,-21.2963 18.64197,-38.99177 42.55144,-38.99177 10.96708,0 22.73662,6.11111 34.69136,15.84362 7.65432,6.23457 15.16461,13.74486 22.59259,21.46091 a 8.6625514,8.6625514 0 0 0 1.74897,2.53086 c 10.96708,11.35802 23.08642,24.79424 36.50206,35.72016 13.41564,10.92593 28.51852,19.73252 45.61728,19.73252 32.63375,0 59.87654,-24.95885 59.87654,-56.2963 0,-31.35803 -27.24279,-56.31687 -59.87654,-56.31687 -29.03292,0 -44.89712,19.15637 -51.35802,26.04938 a 8.6679809,8.6679809 0 1 0 12.61317,11.893 c 7.77777,-8.2716 16.85185,-20.61728 38.74485,-20.61728 23.90947,0 42.55144,17.69547 42.55144,38.99177 0,21.27572 -18.64197,38.97119 -42.55144,38.97119 -10.96708,0 -22.73662,-6.11111 -34.69136,-15.84362 -7.65432,-6.23457 -15.16461,-13.78601 -22.59259,-21.48148 a 8.6625514,8.6625514 0 0 0 -1.74897,-2.48971 c -10.96708,-11.35803 -23.08642,-24.85597 -36.50206,-35.7819 -13.41564,-10.90535 -28.51852,-19.69135 -45.61728,-19.69135 z"
     id="path4"
     style="stroke:#ffffff;stroke-width:5;stroke-linecap:round;stroke-linejoin:round;stroke-miterlimit:4;stroke-dasharray:none;stroke-opacity:1;paint-order:normal" />
</svg>
