<?xml version="1.0" encoding="UTF-8" standalone="no"?>
<svg
   xmlns:dc="http://purl.org/dc/elements/1.1/"
   xmlns:cc="http://creativecommons.org/ns#"
   xmlns:rdf="http://www.w3.org/1999/02/22-rdf-syntax-ns#"
   xmlns:svg="http://www.w3.org/2000/svg"
   xmlns="http://www.w3.org/2000/svg"
   xmlns:sodipodi="http://sodipodi.sourceforge.net/DTD/sodipodi-0.dtd"
   xmlns:inkscape="http://www.inkscape.org/namespaces/inkscape"
   role="img"
   viewBox="0 0 24.299999 17.096096"
   version="1.1"
   id="svg6"
   sodipodi:docname="jsfiddle.svg"
   width="24.299999"
   height="17.096096"
   inkscape:version="1.0.1 (3bc2e813f5, 2020-09-07)">
  <metadata
     id="metadata12">
    <rdf:RDF>
      <cc:Work
         rdf:about="">
        <dc:format>image/svg+xml</dc:format>
        <dc:type
           rdf:resource="http://purl.org/dc/dcmitype/StillImage" />
        <dc:title>JSFiddle</dc:title>
      </cc:Work>
    </rdf:RDF>
  </metadata>
  <defs
     id="defs10" />
  <sodipodi:namedview
     pagecolor="#ffffff"
     bordercolor="#666666"
     borderopacity="1"
     objecttolerance="10"
     gridtolerance="10"
     guidetolerance="10"
     inkscape:pageopacity="0"
     inkscape:pageshadow="2"
     inkscape:window-width="1920"
     inkscape:window-height="1017"
     id="namedview8"
     showgrid="false"
     fit-margin-top="0"
     fit-margin-left="0"
     fit-margin-right="0"
     fit-margin-bottom="0"
     inkscape:zoom="35.416667"
     inkscape:cx="12.15"
     inkscape:cy="8.548"
     inkscape:window-x="-8"
     inkscape:window-y="-8"
     inkscape:window-maximized="1"
     inkscape:current-layer="svg6" />
  <title
     id="title2">JSFiddle</title>
  <path
     d="M 14.05,0.15000001 C 11.301,0.15000001 8.947,1.694 7.7,3.929 7.164,3.612 6.561,3.389 5.894,3.389 c -1.981,0 -3.6,1.606 -3.6,3.579 0,0.263 0.063,0.513 0.118,0.762 -1.35,0.908 -2.26199999,2.42 -2.26199999,4.162 0,2.763 2.24099999,5.012 5.00799999,5.054 a 0.421,0.421 0 0 0 0.008,0 h 14 c 2.746,0.017 4.984,-2.206 4.984,-4.937 0,-1.946 -1.153,-3.602 -2.799,-4.41 0.003,-0.062 0.01,-0.115 0.01,-0.184 0,-4.008 -3.28,-7.26499999 -7.31,-7.26499999 z m 0,0.843 c 3.58,0 6.47,2.87199999 6.47,6.42199999 0,0.115 -0.012,0.242 -0.02,0.387 a 0.421,0.421 0 0 0 0.26,0.414 4.104,4.104 0 0 1 2.546,3.793 4.094,4.094 0 0 1 -4.135,4.096 0.421,0.421 0 0 0 -0.003,0 H 5.17 C 2.852,16.068 0.99400001,14.201 0.99400001,11.892 0.99400001,10.347 1.828,9.009 3.074,8.272 A 0.421,0.421 0 0 0 3.261,7.782 2.701,2.701 0 0 1 3.136,6.968 2.741,2.741 0 0 1 5.894,4.232 2.75,2.75 0 0 1 7.58,4.808 0.421,0.421 0 0 0 8.216,4.658 6.462,6.462 0 0 1 14.05,0.99200001 Z M 8.72,7.87 c -1.586,0 -2.91,1.213 -2.91,2.737 0,1.523 1.324,2.736 2.91,2.736 1.411,0 2.182,-0.931 2.496,-1.266 a 0.42126387,0.42126387 0 1 0 -0.613,-0.578 c -0.378,0.402 -0.819,1.002 -1.883,1.002 -1.162,0 -2.068,-0.86 -2.068,-1.894 0,-1.035 0.906,-1.895 2.068,-1.895 0.533,0 1.105,0.297 1.686,0.77 0.372,0.303 0.737,0.668 1.098,1.043 a 0.421,0.421 0 0 0 0.085,0.123 c 0.533,0.552 1.122,1.205 1.774,1.736 0.652,0.531 1.386,0.959 2.217,0.959 1.586,0 2.91,-1.213 2.91,-2.736 0,-1.524 -1.324,-2.737 -2.91,-2.737 -1.411,0 -2.182,0.931 -2.496,1.266 a 0.42126387,0.42126387 0 1 0 0.613,0.578 c 0.378,-0.402 0.819,-1.002 1.883,-1.002 1.162,0 2.068,0.86 2.068,1.895 0,1.034 -0.906,1.894 -2.068,1.894 -0.533,0 -1.105,-0.297 -1.686,-0.77 -0.372,-0.303 -0.737,-0.67 -1.098,-1.044 A 0.421,0.421 0 0 0 12.711,10.566 C 12.178,10.014 11.589,9.358 10.937,8.827 10.285,8.297 9.551,7.87 8.72,7.87 Z"
     id="path4"
     style="stroke:#ffffff;stroke-width:0.3;stroke-miterlimit:4;stroke-dasharray:none;stroke-opacity:1" />
</svg>
