<?xml version="1.0" encoding="UTF-8" standalone="no"?>
<svg
   xmlns:dc="http://purl.org/dc/elements/1.1/"
   xmlns:cc="http://creativecommons.org/ns#"
   xmlns:rdf="http://www.w3.org/1999/02/22-rdf-syntax-ns#"
   xmlns:svg="http://www.w3.org/2000/svg"
   xmlns="http://www.w3.org/2000/svg"
   xmlns:sodipodi="http://sodipodi.sourceforge.net/DTD/sodipodi-0.dtd"
   xmlns:inkscape="http://www.inkscape.org/namespaces/inkscape"
   enable-background="new 0 0 606.6 524.8"
   viewBox="0 0 533.06044 399.9163"
   version="1.1"
   id="svg1199"
   sodipodi:docname="Notepad++_Logo.svg"
   width="533.06042"
   height="399.91629"
   inkscape:version="1.0.1 (3bc2e813f5, 2020-09-07)">
  <metadata
     id="metadata1205">
    <rdf:RDF>
      <cc:Work
         rdf:about="">
        <dc:format>image/svg+xml</dc:format>
        <dc:type
           rdf:resource="http://purl.org/dc/dcmitype/StillImage" />
        <dc:title></dc:title>
      </cc:Work>
    </rdf:RDF>
  </metadata>
  <defs
     id="defs1203" />
  <sodipodi:namedview
     pagecolor="#ffffff"
     bordercolor="#666666"
     borderopacity="1"
     objecttolerance="10"
     gridtolerance="10"
     guidetolerance="10"
     inkscape:pageopacity="0"
     inkscape:pageshadow="2"
     inkscape:window-width="1920"
     inkscape:window-height="1017"
     id="namedview1201"
     showgrid="false"
     fit-margin-top="0"
     fit-margin-left="0"
     fit-margin-right="0"
     fit-margin-bottom="0"
     inkscape:zoom="1.6196647"
     inkscape:cx="168.6354"
     inkscape:cy="210.94768"
     inkscape:window-x="-8"
     inkscape:window-y="-8"
     inkscape:window-maximized="1"
     inkscape:current-layer="svg1199" />
  <path
     d="m 231.36042,261.71628 c -13.8,0 -16.7,5.9 -16.7,10.8 v 61.1 c 0,4.9 2.9,10.8 16.7,10.8 13.8,0 16.7,-5.9 16.7,-10.8 v -61.1 c 0,-4.9 -2.9,-10.8 -16.7,-10.8 z m -7.9,13.8 c 0,-4.8 2.4,-6.9 7.9,-6.9 5.5,0 7.9,2.1 7.9,6.9 v 55.2 c 0,4.8 -2.4,6.9 -7.9,6.9 -5.5,0 -7.9,-2.1 -7.9,-6.9 z"
     fill="#231f20"
     id="path1045"
     style="stroke:#ffffff;stroke-width:2;stroke-miterlimit:4;stroke-dasharray:none;stroke-opacity:1" />
  <path
     d="m 273.86042,202.61628 h -8.9 v 49.3 h -5.9 v 6.9 h 5.9 v 95.5 h 8.9 v -95.5 h 13.8 v -6.9 h -13.8 z"
     fill="#231f20"
     id="path1047"
     style="stroke:#ffffff;stroke-width:2;stroke-miterlimit:4;stroke-dasharray:none;stroke-opacity:1" />
  <path
     d="m 308.36042,261.71628 c -13.8,0 -16.7,5.9 -16.7,10.8 v 61.1 c 0,4.9 2.9,10.8 16.7,10.8 13.8,0 16.7,-5.9 16.7,-10.8 v -9.8 h -8.9 v 6.9 c 0,4.8 -2.4,6.9 -7.9,6.9 -5.5,0 -7.9,-2.1 -7.9,-6.9 v -16.7 c 2.2,0.6 4.8,0.9 7.9,0.9 13.8,0 16.7,-5.9 16.7,-10.8 v -31.5 c 0.1,-5 -2.8,-10.9 -16.6,-10.9 z m -7.9,13.8 c 0,-4.8 2.4,-6.9 7.9,-6.9 5.5,0 7.9,2.1 7.9,6.9 v 25.6 c 0,4.8 -2.4,6.9 -7.9,6.9 -5.5,0 -7.9,-2.1 -7.9,-6.9 z"
     fill="#231f20"
     id="path1049"
     style="stroke:#ffffff;stroke-width:2;stroke-miterlimit:4;stroke-dasharray:none;stroke-opacity:1" />
  <path
     d="m 355.36042,261.71628 c -13.8,0 -16.7,5.9 -16.7,10.8 v 109.3 h 8.9 v -38.3 c 2.2,0.6 4.8,0.9 7.9,0.9 13.8,0 16.7,-5.9 16.7,-10.8 v -61.1 c 0,-4.9 -2.9,-10.8 -16.8,-10.8 z m -7.8,13.8 c 0,-4.8 2.4,-6.9 7.9,-6.9 5.5,0 7.9,2.1 7.9,6.9 v 55.2 c 0,4.8 -2.4,6.9 -7.9,6.9 -5.5,0 -7.9,-2.1 -7.9,-6.9 z"
     fill="#231f20"
     id="path1051"
     style="stroke:#ffffff;stroke-width:2;stroke-miterlimit:4;stroke-dasharray:none;stroke-opacity:1" />
  <path
     d="m 402.46042,261.71628 c -13.8,0 -16.7,5.9 -16.7,10.8 v 9.8 h 8.9 v -6.9 c 0,-4.8 2.4,-6.9 7.9,-6.9 5.5,0 7.9,2.1 7.9,6.9 v 16.7 c -2.2,-0.6 -4.8,-0.9 -7.9,-0.9 -13.8,0 -16.7,5.9 -16.7,10.8 v 31.5 c 0,4.9 2.9,10.8 16.7,10.8 13.8,0 16.7,-5.9 16.7,-10.8 v -61.1 c 0,-4.8 -3,-10.7 -16.8,-10.7 z m -7.9,43.3 c 0,-4.8 2.4,-6.9 7.9,-6.9 5.5,0 7.9,2.1 7.9,6.9 v 25.6 c 0,4.8 -2.4,6.9 -7.9,6.9 -5.5,0 -7.9,-2.1 -7.9,-6.9 z"
     fill="#231f20"
     id="path1053"
     style="stroke:#ffffff;stroke-width:2;stroke-miterlimit:4;stroke-dasharray:none;stroke-opacity:1" />
  <path
     d="m 458.16042,262.61628 c -2.2,-0.6 -4.8,-0.9 -7.9,-0.9 -13.8,0 -16.7,5.9 -16.7,10.8 v 61.1 c 0,4.9 2.9,10.8 16.7,10.8 13.8,0 16.7,-5.9 16.7,-10.8 v -131 h -8.9 v 60 z m -15.7,12.9 c 0,-4.8 2.4,-6.9 7.9,-6.9 5.5,0 7.9,2.1 7.9,6.9 v 55.2 c 0,4.8 -2.4,6.9 -7.9,6.9 -5.5,0 -7.9,-2.1 -7.9,-6.9 z"
     fill="#231f20"
     id="path1055"
     style="stroke:#ffffff;stroke-width:2;stroke-miterlimit:4;stroke-dasharray:none;stroke-opacity:1" />
  <path
     d="m 489.76042,261.71628 h -8.9 v 19.7 h -9.9 v 6.9 h 9.9 v 19.7 h 8.9 v -19.7 h 9.8 v -6.9 h -9.8 z"
     fill="#231f20"
     id="path1057"
     style="stroke:#ffffff;stroke-width:2;stroke-miterlimit:4;stroke-dasharray:none;stroke-opacity:1" />
  <path
     d="m 522.26042,281.41628 v -19.7 h -8.9 v 19.7 h -9.9 v 6.9 h 9.9 v 19.7 h 8.9 v -19.7 h 9.8 v -6.9 z"
     fill="#231f20"
     id="path1059"
     style="stroke:#ffffff;stroke-width:2;stroke-miterlimit:4;stroke-dasharray:none;stroke-opacity:1" />
  <path
     d="m 193.86042,202.61628 c -13.8,0 -16.7,5.9 -16.7,10.8 v 185.5 h 8.9 v -182.5 c 0,-4.8 2.4,-6.9 7.9,-6.9 5.5,0 7.9,2.1 7.9,6.9 v 128 h 8.9 v -131 c -0.1,-4.9 -3,-10.8 -16.9,-10.8 z"
     fill="#231f20"
     id="path1061"
     style="stroke:#ffffff;stroke-width:2;stroke-miterlimit:4;stroke-dasharray:none;stroke-opacity:1" />
  <path
     d="m 125.46042,216.91628 c -1.4,-1.6 -2.5,-3.5 -3.9,-5.1 0,2.4 0.1,4.7 0.2,7.1 -6,3.7 -11.4,-2.2 -16.2,-5.1 2,2.2 4.1,4.3 6.1,6.6 4.9,0.7 10.4,0.9 13.8,-3.5 z"
     fill="none"
     id="path1075"
     style="stroke:#ffffff;stroke-width:2;stroke-miterlimit:4;stroke-dasharray:none;stroke-opacity:1" />
  <path
     d="m 76.360418,160.11628 c -3.7,-4.3 -10,-2.3 -15,-3 -5.4,0.3 -14,-0.9 -16.1,5.7 9.8,0.3 19.6,0.4 29.4,0.9 0.5,-0.9 1.3,-2.7 1.7,-3.6 z"
     fill="none"
     id="path1077"
     style="stroke:#ffffff;stroke-width:2;stroke-miterlimit:4;stroke-dasharray:none;stroke-opacity:1" />
  <path
     d="m 186.76042,146.51628 c 5.4,8.8 16,7.7 24.9,7.5 -3.7,-3.5 -8.2,-6.2 -11.3,-10.3 -1.8,-1.7 -2.5,-5.1 -5.3,-5.4 -5.4,0.7 -10.8,1.5 -16.3,1.3 h -0.3 -5.7 c -0.3,3.3 -0.3,6.6 -0.3,9.9 1.3,0.7 4,2.1 5.3,2.9 1.8,-3.5 5.4,-4.9 9,-5.9 z"
     fill="none"
     id="path1079"
     style="stroke:#ffffff;stroke-width:2;stroke-miterlimit:4;stroke-dasharray:none;stroke-opacity:1" />
  <path
     d="m 41.760418,157.01628 -0.4,-1.1 c -0.2,0.4 -0.5,1.2 -0.6,1.6 l -1.1,1.3 c -0.2,0.2 -0.6,0.7 -0.7,0.9 -2.6,2.2 -2.1,5.6 -2.4,8.6 0.4,0.7 1.3,2.2 1.7,3 4.5,2.7 3.6,-7.2 0.5,-7.4 1.9,-2.3 4,-4.5 4.6,-7.5 z"
     fill="none"
     id="path1081"
     style="stroke:#ffffff;stroke-width:2;stroke-miterlimit:4;stroke-dasharray:none;stroke-opacity:1" />
  <path
     d="m 56.760418,175.21628 c 0.7,9.1 2.5,18.3 5.6,26.9 6,10.5 11,21.7 18.7,31.2 8,7.9 15.9,17.8 28.000002,18.4 8.9,0 18.8,2 26.7,-3.1 10.3,-4.8 16.2,-17.7 12.2,-28.6 -3.4,-9 -5.9,-19.7 -14.5,-25.3 -12.2,-7.3 -30.5,4.8 -28,19.1 -0.6,-14.4 21.3,-24.4 29.7,-11.2 4.9,11.1 11.9,24.1 6.3,36.3 -9,13.7 -29.7,15.1 -42.300002,5.8 -5.9,-4.5 -12.2,-8.9 -16,-15.4 -3.6,-6.2 -6.8,-12.8 -10.5,-19 -6.5,-10.5 -6.8,-23.3 -11.6,-34.4 -1.1,-0.2 -3.2,-0.5 -4.3,-0.7 z"
     fill="none"
     id="path1083"
     style="stroke:#ffffff;stroke-width:2;stroke-miterlimit:4;stroke-dasharray:none;stroke-opacity:1" />
  <path
     d="m 47.660418,168.11628 c 0.3,0.7 1,2.1 1.4,2.8 10.7,1.1 21.4,0.3 32.1,0.3 -0.4,-0.5 -1.2,-1.4 -1.7,-1.9 -10.6,-0.4 -21.2,-2.9 -31.8,-1.2 z"
     fill="none"
     id="path1085"
     style="stroke:#ffffff;stroke-width:2;stroke-miterlimit:4;stroke-dasharray:none;stroke-opacity:1" />
  <path
     d="m 211.06042,136.71628 c -1.8,-2.1 -4.7,-2.3 -6.4,0.1 2.2,7.2 10,10.7 13.2,17.4 -1.4,3 -4.9,6.2 -2.5,9.6 0.9,-6.5 6.3,-9.8 11.9,-11.9 -2.9,-0.2 -5.8,-0.4 -8.6,-0.6 -2.3,-5 -4.3,-10.2 -7.6,-14.6 z"
     fill="none"
     id="path1087"
     style="stroke:#ffffff;stroke-width:2;stroke-miterlimit:4;stroke-dasharray:none;stroke-opacity:1" />
  <path
     d="m 29.260418,155.11628 c -1.1,2.5 -2.4,5.1 -3.7,7.5 1.1,3.2 2.8,6.2 4.8,8.9 0.6,-0.3 1.8,-0.8 2.3,-1 -4.3,-5 -0.9,-11 1.9,-15.8 -1.8,0.3 -3.6,0.4 -5.3,0.4 z"
     fill="none"
     id="path1089"
     style="stroke:#ffffff;stroke-width:2;stroke-miterlimit:4;stroke-dasharray:none;stroke-opacity:1" />
  <path
     d="m 240.56042,153.61628 c -3.5,-3.4 -8.4,-4.5 -13.2,-5 h -0.1 v 3.3 c 4.2,1.6 8.8,1.4 13.3,1.7 z"
     fill="none"
     id="path1091"
     style="stroke:#ffffff;stroke-width:2;stroke-miterlimit:4;stroke-dasharray:none;stroke-opacity:1" />
  <path
     d="m 87.060418,148.31628 c -4.1,-6.5 -5.5,-14.1 -3,-21.5 -1.8,0.5 -3.6,0.9 -5.4,1.3 -4,7.1 -9.4,14.4 -8.2,23 5.6,0 11.4,-0.1 16.6,-2.8 z"
     fill="none"
     id="path1093"
     style="stroke:#ffffff;stroke-width:2;stroke-miterlimit:4;stroke-dasharray:none;stroke-opacity:1" />
  <path
     d="m 25.660418,152.81628 c -3.4,0.6 -6.8,0.7 -10.2,0.2 -2,3.5 -4.6,6.7 -8.1999999,8.7 -3.6,2.2 -2,7.3 -1.4,10.7 6.3999999,1.2 12.9999999,0.8 19.4999999,1.1 -1.6,-3.7 -3.8,-7.2 -4.7,-11.1 -0.5,-4.1 4.8,-5.7 5,-9.6 z"
     fill="none"
     id="path1095"
     style="stroke:#ffffff;stroke-width:2;stroke-miterlimit:4;stroke-dasharray:none;stroke-opacity:1" />
  <path
     d="m 112.56042,145.71628 c 0.4,-2.3 1,-4.7 1.5,-7 -3.7,-3.5 -9.3,-3.4 -13.9,-4.7 -1.300002,6.3 0.1,12.6 3.8,17.8 2.7,-2.1 5.5,-4.4 8.6,-6.1 z"
     fill="none"
     id="path1097"
     style="stroke:#ffffff;stroke-width:2;stroke-miterlimit:4;stroke-dasharray:none;stroke-opacity:1" />
  <path
     d="m 244.66042,167.61628 c -9.8,1.7 -19.8,0.5 -29.6,1.8 -10.5,-2.1 -21.2,-2.4 -31.9,-1.6 0.1,1 0.2,3 0.3,4 10.5,-0.7 21.2,0.4 31.6,-1.8 9.1,2 18.4,1.2 27.6,0.6 4.7,-0.5 9,2.4 13.6,1.9 0.9,-6.4 -7.6,-4.6 -11.6,-4.9 z"
     fill="none"
     id="path1099"
     style="stroke:#ffffff;stroke-width:2;stroke-miterlimit:4;stroke-dasharray:none;stroke-opacity:1" />
  <path
     d="m 222.06042,159.51628 c -0.4,0.7 -1.2,2.2 -1.6,3 5.9,1.8 12.2,0.7 18.2,1.5 7.8,1.1 16.2,2 23.5,-1.7 -2.5,-1.6 -4.8,-4 -7.8,-4.6 -10.8,-0.6 -21.6,0.8 -32.3,1.8 z"
     fill="none"
     id="path1101"
     style="stroke:#ffffff;stroke-width:2;stroke-miterlimit:4;stroke-dasharray:none;stroke-opacity:1" />
  <path
     d="m 232.76042,181.51628 c -5.9,-2 -11.6,-4.6 -17.3,-7.2 3.7,3.6 6.8,8.2 11.5,10.5 6.2,1.4 12.3,-2.7 16.7,-6.7 -2.7,-5.5 -7.5,2 -10.9,3.4 z"
     fill="none"
     id="path1103"
     style="stroke:#ffffff;stroke-width:2;stroke-miterlimit:4;stroke-dasharray:none;stroke-opacity:1" />
  <path
     d="m 191.86042,159.01628 c -2.4,0.6 -7.6,-0.2 -7,3.9 6.8,0.4 13.7,0.4 20.5,0.2 2.8,0.1 4,-1.3 3.7,-4.2 -5.7,0 -11.5,-0.3 -17.2,0.1 z"
     fill="none"
     id="path1105"
     style="stroke:#ffffff;stroke-width:2;stroke-miterlimit:4;stroke-dasharray:none;stroke-opacity:1" />
  <path
     d="m 271.56042,157.41628 c -0.3,2.4 -0.5,4.8 -0.7,7.2 -1,0.6 -2.9,1.8 -3.8,2.5 0,2.2 -0.2,4.5 -0.3,6.7 8.3,-0.2 15.9,-3.7 24,-5.3 1.3,-2.6 0.5,-5.5 0.5,-8.3 -6.7,-0.6 -13,-3.1 -19.7,-2.8 z"
     fill="none"
     id="path1107"
     style="stroke:#ffffff;stroke-width:2;stroke-miterlimit:4;stroke-dasharray:none;stroke-opacity:1" />
  <path
     d="m 124.76042,140.31628 -1.7,0.9 c -1.4,5.2 -4.6,8.7 -8.9,11.5 3.2,0.6 6.4,0.8 9.7,1.1 3.3,-3.9 1.2,-9.1 0.9,-13.5 z"
     fill="none"
     id="path1109"
     style="stroke:#ffffff;stroke-width:2;stroke-miterlimit:4;stroke-dasharray:none;stroke-opacity:1" />
  <path
     d="m 165.86042,154.91628 c -1.9,-4.7 -3.7,-9.9 -7.8,-13.1 -8.7,0.4 -17.4,0.1 -26.1,0.4 -1.1,4.1 -2.5,8 -3.3,12.2 12.3,1.1 24.8,0.6 37.2,0.5 z"
     fill="none"
     id="path1111"
     style="stroke:#ffffff;stroke-width:2;stroke-miterlimit:4;stroke-dasharray:none;stroke-opacity:1" />
  <path
     d="m 176.36042,162.91628 c 1.6,-5.8 7.6,-7.5 12.4,-9.8 -3,-7.1 -10,-1.1 -13.2,2.6 -2.4,-2.1 -4.6,-4.4 -6.6,-6.8 6.2,9.1 1.2,23 11.4,29.7 -1.5,-4.9 -3.3,-9.8 -4.1,-14.9 z"
     fill="none"
     id="path1113"
     style="stroke:#ffffff;stroke-width:2;stroke-miterlimit:4;stroke-dasharray:none;stroke-opacity:1" />
  <path
     d="m 114.56042,163.01628 c 6,-1.8 11.7,2.2 17.7,2.2 11.5,0.3 23,0.3 34.5,-0.2 -0.1,-1.3 -0.3,-4 -0.4,-5.3 -15.3,0 -31.1,-2.3 -46,2 -4.2,-0.1 -8.1,-2 -12.2,-2.7 -2.8,-3.8 -10.100002,-1.1 -14.700002,-2.2 0.7,2.1 1.3,4.3 1.9,6.4 3.7,0.1 7.500002,0.2 11.200002,0.2 2.4,2.6 5.4,-0.2 8,-0.4 z"
     fill="none"
     id="path1115"
     style="stroke:#ffffff;stroke-width:2;stroke-miterlimit:4;stroke-dasharray:none;stroke-opacity:1" />
  <path
     d="m 100.96042,169.11628 c 0.9,1.2 1.8,2.5 2.7,3.7 3.6,0.1 7.3,0.2 10.9,0.4 17.3,0.1 34.5,0.4 51.8,-0.2 0.3,-0.6 0.9,-1.7 1.3,-2.2 -17.7,-1.2 -35.4,-1.4 -53.1,-1.7 -4.5,0.1 -9,0.1 -13.6,0 z"
     fill="none"
     id="path1117"
     style="stroke:#ffffff;stroke-width:2;stroke-miterlimit:4;stroke-dasharray:none;stroke-opacity:1" />
  <path
     d="m 179.96042,82.016284 -0.2,1.2 c 8.6,8.6 21.4,13.9 33.4,10.4 4.6,-2.5 9.2,-5.6 11.4,-10.5 7.5,-15.5 8.8,-33.8 3.7,-50.2 -4.6,-3.3 -9,-7.1 -11.7,-12.1 -5.5,-7.6 -14.6,-15.5999999 -24.6,-11.9999999 -10.2,1.3999999 -17.4,10.3999999 -20.2,19.7999999 -3.8,12 -5.1,25.6 0.1,37.4 1,5.9 2.1,13.2 8.1,16 z m 19.2,-29.5 c 2.2,6.5 -1.4,15.5 -9.4,15.6 -3.6,-2.5 -8.6,-4.8 -7.8,-10 -1.4,-9.6 11.6,-9.3 17.2,-5.6 z"
     fill="#fbfdfc"
     id="path1119"
     style="stroke:#ffffff;stroke-width:2;stroke-miterlimit:4;stroke-dasharray:none;stroke-opacity:1" />
  <path
     d="m 266.46042,90.316284 c 4.6,-4.9 10.2,-8.7 15.1,-13.2 8.4,-12.3 15.5,-28.6 9.1,-43.4 -2.2,-9.8 -13.6,-13.2 -22.5,-12.1 -11.7,2 -24.6,6.2 -30.8,17.3 0.2,10.8 1.9,21.6 -0.3,32.3 11.4,3 23.8,8 29.4,19.1 z m 8.4,-45.5 c 2.3,-0.5 4.7,-1.1 7,-1.8 2.6,4 2.5,9.7 1.1,14.1 -4.6,4.5 -11.2,-0.1 -13.1,-5 1.7,-2.5 3.4,-4.9 5,-7.3 z"
     fill="#fbfdfc"
     id="path1121"
     style="stroke:#ffffff;stroke-width:2;stroke-miterlimit:4;stroke-dasharray:none;stroke-opacity:1" />
  <path
     d="m 227.26042,148.51628 c 0.1,0.1 0.1,0.1 0,0 z"
     fill="#231f20"
     id="path1123"
     style="stroke:#ffffff;stroke-width:2;stroke-miterlimit:4;stroke-dasharray:none;stroke-opacity:1" />
  <path
     d="m 266.46042,90.316284 c 4.6,-4.9 10.2,-8.7 15.1,-13.2 8.4,-12.3 15.5,-28.6 9.1,-43.4 -2.2,-9.8 -13.6,-13.2 -22.5,-12.1 -11.7,2 -24.6,6.2 -30.8,17.3 0.2,10.8 1.9,21.6 -0.3,32.3 11.4,3 23.8,8 29.4,19.1 z m 8.4,-45.5 c 2.3,-0.5 4.7,-1.1 7,-1.8 2.6,4 2.5,9.7 1.1,14.1 -4.6,4.5 -11.2,-0.1 -13.1,-5 1.7,-2.5 3.4,-4.9 5,-7.3 z"
     fill="none"
     id="path1125"
     style="stroke:#ffffff;stroke-width:2;stroke-miterlimit:4;stroke-dasharray:none;stroke-opacity:1" />
  <path
     d="m 74.760418,163.71628 1.6,-3.6 c -3.7,-4.3 -10,-2.3 -15,-3 -4.2,0.3 -10.2,-0.4 -13.7,2.3 v 3.5 c 9,0.2 18.1,0.4 27.1,0.8 z"
     fill="none"
     id="path1127"
     style="stroke:#ffffff;stroke-width:2;stroke-miterlimit:4;stroke-dasharray:none;stroke-opacity:1" />
  <path
     d="m 84.060418,126.81628 c -1.8,0.5 -3.6,0.9 -5.4,1.3 -4,7.1 -9.4,14.4 -8.2,23 5.7,0 11.5,-0.1 16.6,-2.8 -4.1,-6.5 -5.5,-14.1 -3,-21.5 z"
     fill="none"
     id="path1129"
     style="stroke:#ffffff;stroke-width:2;stroke-miterlimit:4;stroke-dasharray:none;stroke-opacity:1" />
  <path
     d="m 88.460418,156.61628 c 3,-4.1 9,-3.1 13.500002,-4.4 -3.000002,-3.9 -7.100002,-7.4 -8.300002,-12.3 -0.4,-7.3 3.1,-14.1 5.6,-20.9 1.900002,0.4 3.700002,0.7 5.600002,1.1 0.3,2.6 0.5,5.2 0.7,7.9 6.4,3.5 13.8,3.7 20.6,5.9 9.4,3.1 19.5,2 29,-0.2 -0.2,-2.2 -0.3,-4.4 -0.3,-6.6 1,-4 3.2,-10.2 8.6,-7.9 -0.5,5.2 -1.1,10.3 -1.3,15.5 0.1,4.7 2.5,8.7 5.4,12.3 -0.1,-2.7 -0.3,-5.5 -0.5,-8.2 -0.8,-7.2 -0.6,-14.9 3.5,-21.2 1.2,-0.1 3.7,-0.3 4.9,-0.4 -1,5 -2.3,10 -3.4,15 2.4,0.3 4.9,0.6 7.3,0.9 9.8,1.1 19.7,-1.4 28.4,-6 2.5,-1.3 4.9,-2.7 7.3,-4.1 4.7,2.8 10,5.7 15.7,4 13.7,-3.2 29,-5.9 39.4,-16.3 -0.8,-2.1 -1.7,-4.2 -2.6,-6.3 l -0.6,-1.5 c -3.4,-5.699996 -6.2,-12.299996 -12.1,-15.999996 -5.6,-3.3 -12.1,-4.7 -17.9,-7.5 -6.2,5.2 -9.1,13.1 -15,18.5 -6.9,4.599996 -15.7,5.499996 -23.7,3.999996 -9.1,-2.099996 -16.5,-8.099996 -23.7,-13.599996 -4.4,-3.4 -6.6,-8.6 -8.2,-13.7 -1,-3.4 -2,-6.8 -2.9,-10.3 -1.1,-4.4 -0.8,-10.3 -5.8,-12.4 l -0.6,-0.3 c -11.3,-5.2 -23.7,-9 -36.3,-8.3 -11,3.4 -23.200002,5.8 -31.800002,14.2 -13.3,11.7 -20.7,28.4 -26.6,44.799996 -0.3,1 -0.8,2.9 -1.1,3.9 -0.2,0.7 -0.5,1.9 -0.7,2.6 -2,7.9 -5.5,15.4 -7.5,23.3 -0.5,4.5 -0.2,9 0.3,13.4 0,0.8 0.1,2.5 0.2,3.4 2.7,0 5.4,0.1 8.1,0.2 5.6,-9.7 9.2,-21 18.5,-28.1 2.2,-2.2 4.1,-4.7 6.4,-6.9 2.9,-1.6 4.8,1.7 6.3,3.5 -8.1,9 -5.4,22.8 0.9,32.1 -4.2,3.1 -8.4,6.4 -11.7,10.6 2.3,7.5 9.9,11.1 16.8,13.6 -4.9,-4.7 -12.2,-9.3 -10.4,-17.3 z"
     fill="none"
     id="path1131"
     style="stroke:#ffffff;stroke-width:2;stroke-miterlimit:4;stroke-dasharray:none;stroke-opacity:1" />
  <path
     d="m 157.96042,141.81628 c -8.7,0.4 -17.4,0.1 -26.1,0.4 -1.1,4.1 -2.5,8 -3.3,12.2 12.4,1.1 24.9,0.7 37.3,0.5 -1.9,-4.7 -3.7,-9.9 -7.9,-13.1 z"
     fill="none"
     id="path1133"
     style="stroke:#ffffff;stroke-width:2;stroke-miterlimit:4;stroke-dasharray:none;stroke-opacity:1" />
  <path
     d="m 125.46042,216.91628 c -1.4,-1.6 -2.5,-3.5 -3.9,-5.1 0,2.4 0.1,4.7 0.2,7.1 -6,3.7 -11.4,-2.2 -16.2,-5.1 2,2.2 4.1,4.3 6.1,6.6 4.9,0.7 10.4,0.9 13.8,-3.5 z"
     fill="none"
     id="path1135"
     style="stroke:#ffffff;stroke-width:2;stroke-miterlimit:4;stroke-dasharray:none;stroke-opacity:1" />
  <path
     d="m 81.160418,171.21628 c -0.4,-0.5 -1.2,-1.4 -1.7,-1.9 -10.6,-0.4 -21.2,-2.9 -31.8,-1.2 0.3,0.7 1,2.1 1.4,2.8 10.6,1.1 21.4,0.3 32.1,0.3 z"
     fill="none"
     id="path1137"
     style="stroke:#ffffff;stroke-width:2;stroke-miterlimit:4;stroke-dasharray:none;stroke-opacity:1" />
  <path
     d="m 56.760418,175.21628 c 0.7,9.1 2.5,18.3 5.6,26.9 6,10.5 11,21.7 18.7,31.2 8,7.9 15.9,17.8 28.000002,18.4 8.9,0 18.8,2 26.7,-3.1 10.3,-4.8 16.2,-17.7 12.2,-28.6 -3.4,-9 -5.9,-19.7 -14.5,-25.3 -12.2,-7.3 -30.5,4.8 -28,19.1 -0.6,-14.4 21.3,-24.4 29.7,-11.2 4.9,11.1 11.9,24.1 6.3,36.3 -9,13.7 -29.7,15.1 -42.300002,5.8 -5.9,-4.5 -12.2,-8.9 -16,-15.4 -3.6,-6.2 -6.8,-12.8 -10.5,-19 -6.5,-10.5 -6.8,-23.3 -11.6,-34.4 -1.1,-0.2 -3.2,-0.5 -4.3,-0.7 z"
     fill="none"
     id="path1139"
     style="stroke:#ffffff;stroke-width:2;stroke-miterlimit:4;stroke-dasharray:none;stroke-opacity:1" />
  <path
     d="m 191.86042,159.01628 c -2.4,0.6 -7.6,-0.2 -7,3.9 6.8,0.4 13.7,0.4 20.5,0.2 2.8,0.1 4,-1.3 3.7,-4.2 -5.7,0 -11.5,-0.3 -17.2,0.1 z"
     fill="none"
     id="path1141"
     style="stroke:#ffffff;stroke-width:2;stroke-miterlimit:4;stroke-dasharray:none;stroke-opacity:1" />
  <path
     d="m 200.36042,143.71628 c -1.8,-1.7 -2.5,-5.1 -5.3,-5.4 -5.4,0.7 -10.8,1.5 -16.3,1.3 h -0.3 -5.7 c -0.3,3.3 -0.3,6.6 -0.3,9.9 1.3,0.7 4,2.1 5.3,2.9 1.9,-3.5 5.5,-4.9 9.1,-5.9 5.4,8.8 16,7.7 24.9,7.5 -3.8,-3.5 -8.3,-6.3 -11.4,-10.3 z"
     fill="none"
     id="path1143"
     style="stroke:#ffffff;stroke-width:2;stroke-miterlimit:4;stroke-dasharray:none;stroke-opacity:1" />
  <path
     d="m 179.96042,82.016284 -0.2,1.2 c 8.6,8.6 21.4,13.9 33.4,10.4 4.6,-2.5 9.2,-5.6 11.4,-10.5 7.5,-15.5 8.8,-33.8 3.7,-50.2 -4.6,-3.3 -9,-7.1 -11.7,-12.1 -5.5,-7.6 -14.6,-15.5999999 -24.6,-11.9999999 -10.2,1.3999999 -17.4,10.3999999 -20.2,19.7999999 -3.8,12 -5.1,25.6 0.1,37.4 1,5.9 2.1,13.2 8.1,16 z m 19.2,-29.5 c 2.2,6.5 -1.4,15.5 -9.4,15.6 -3.6,-2.5 -8.6,-4.8 -7.8,-10 -1.4,-9.6 11.6,-9.3 17.2,-5.6 z"
     fill="none"
     id="path1145"
     style="stroke:#ffffff;stroke-width:2;stroke-miterlimit:4;stroke-dasharray:none;stroke-opacity:1" />
  <path
     d="m 222.06042,159.51628 c -0.4,0.7 -1.2,2.2 -1.6,3 5.9,1.8 12.2,0.7 18.2,1.5 7.8,1.1 16.2,2 23.5,-1.7 -2.5,-1.6 -4.8,-4 -7.8,-4.6 -10.8,-0.6 -21.6,0.8 -32.3,1.8 z"
     fill="none"
     id="path1147"
     style="stroke:#ffffff;stroke-width:2;stroke-miterlimit:4;stroke-dasharray:none;stroke-opacity:1" />
  <path
     d="m 244.66042,167.61628 c -9.8,1.7 -19.8,0.5 -29.6,1.8 -10.5,-2.1 -21.2,-2.4 -31.9,-1.6 0.1,1 0.2,3 0.3,4 10.5,-0.7 21.2,0.4 31.6,-1.8 9.1,2 18.4,1.2 27.6,0.6 4.7,-0.5 9,2.4 13.6,1.9 0.9,-6.4 -7.6,-4.6 -11.6,-4.9 z"
     fill="none"
     id="path1149"
     style="stroke:#ffffff;stroke-width:2;stroke-miterlimit:4;stroke-dasharray:none;stroke-opacity:1" />
  <path
     d="m 232.76042,181.51628 c -5.9,-2 -11.6,-4.6 -17.3,-7.2 3.7,3.6 6.8,8.2 11.5,10.5 6.2,1.4 12.3,-2.7 16.7,-6.7 -2.7,-5.5 -7.5,2 -10.9,3.4 z"
     fill="none"
     id="path1151"
     style="stroke:#ffffff;stroke-width:2;stroke-miterlimit:4;stroke-dasharray:none;stroke-opacity:1" />
  <path
     d="m 271.56042,157.41628 c -0.3,2.4 -0.5,4.8 -0.7,7.2 -1,0.6 -2.9,1.8 -3.8,2.5 0,2.2 -0.2,4.5 -0.3,6.7 8.3,-0.2 15.9,-3.7 24,-5.3 1.3,-2.6 0.5,-5.5 0.5,-8.3 -6.7,-0.6 -13,-3.1 -19.7,-2.8 z"
     fill="none"
     id="path1153"
     style="stroke:#ffffff;stroke-width:2;stroke-miterlimit:4;stroke-dasharray:none;stroke-opacity:1" />
  <path
     d="m 211.06042,136.71628 c -1.8,-2.1 -4.7,-2.3 -6.4,0.1 2.2,7.2 10,10.7 13.2,17.4 -1.4,3 -4.9,6.2 -2.5,9.6 0.9,-6.5 6.3,-9.8 11.9,-11.9 -2.9,-0.2 -5.8,-0.4 -8.6,-0.6 -2.3,-5 -4.3,-10.2 -7.6,-14.6 z"
     fill="none"
     id="path1155"
     style="stroke:#ffffff;stroke-width:2;stroke-miterlimit:4;stroke-dasharray:none;stroke-opacity:1" />
  <path
     d="m 114.56042,163.01628 c 6,-1.8 11.7,2.2 17.7,2.2 11.5,0.3 23,0.3 34.5,-0.2 -0.1,-1.3 -0.3,-4 -0.4,-5.3 -15.3,0 -31.1,-2.3 -46,2 -4.2,-0.1 -8.1,-2 -12.2,-2.7 -2.8,-3.8 -10.100002,-1.1 -14.700002,-2.2 0.7,2.1 1.3,4.3 1.9,6.4 3.7,0.1 7.500002,0.2 11.200002,0.2 2.4,2.6 5.4,-0.2 8,-0.4 z"
     fill="none"
     id="path1157"
     style="stroke:#ffffff;stroke-width:2;stroke-miterlimit:4;stroke-dasharray:none;stroke-opacity:1" />
  <path
     d="m 100.96042,169.11628 c 0.9,1.2 1.8,2.5 2.7,3.7 3.6,0.1 7.3,0.2 10.9,0.4 17.3,0.1 34.5,0.4 51.8,-0.2 0.3,-0.6 0.9,-1.7 1.3,-2.2 -17.7,-1.2 -35.4,-1.4 -53.1,-1.7 -4.5,0.1 -9,0.1 -13.6,0 z"
     fill="none"
     id="path1159"
     style="stroke:#ffffff;stroke-width:2;stroke-miterlimit:4;stroke-dasharray:none;stroke-opacity:1" />
  <path
     d="m 103.86042,151.91628 c 2.8,-2.2 5.6,-4.4 8.6,-6.1 0.4,-2.3 1,-4.7 1.5,-7 -3.7,-3.5 -9.3,-3.4 -13.9,-4.7 -1.200002,6.2 0.2,12.5 3.8,17.8 z"
     fill="none"
     id="path1161"
     style="stroke:#ffffff;stroke-width:2;stroke-miterlimit:4;stroke-dasharray:none;stroke-opacity:1" />
  <path
     d="m 114.16042,152.61628 c 3.2,0.6 6.4,0.8 9.7,1.1 3.3,-3.8 1.2,-9 0.9,-13.5 l -1.7,0.9 c -1.4,5.2 -4.6,8.7 -8.9,11.5 z"
     fill="none"
     id="path1163"
     style="stroke:#ffffff;stroke-width:2;stroke-miterlimit:4;stroke-dasharray:none;stroke-opacity:1" />
  <path
     d="m 176.36042,162.91628 c 1.6,-5.8 7.6,-7.5 12.4,-9.8 -3,-7.1 -10,-1.1 -13.2,2.6 -2.4,-2.1 -4.6,-4.4 -6.6,-6.8 6.2,9.1 1.2,23 11.4,29.7 -1.5,-4.9 -3.3,-9.8 -4.1,-14.9 z"
     fill="none"
     id="path1165"
     style="stroke:#ffffff;stroke-width:2;stroke-miterlimit:4;stroke-dasharray:none;stroke-opacity:1" />
  <path
     d="m 29.260418,155.11628 c -1.1,2.5 -2.4,5.1 -3.7,7.5 1.1,3.2 2.8,6.2 4.8,8.9 0.6,-0.3 1.8,-0.8 2.3,-1 -4.3,-5 -0.9,-11 1.9,-15.8 -1.8,0.3 -3.6,0.4 -5.3,0.4 z"
     fill="#ffffff"
     id="path1167"
     style="stroke:#ffffff;stroke-width:2;stroke-miterlimit:4;stroke-dasharray:none;stroke-opacity:1" />
  <path
     d="m 41.760418,157.01628 -0.4,-1.1 c -0.2,0.4 -0.5,1.2 -0.6,1.6 l -1.1,1.3 c -0.2,0.2 -0.6,0.7 -0.7,0.9 -2.6,2.2 -2.1,5.6 -2.4,8.6 0.4,0.7 1.3,2.2 1.7,3 4.5,2.7 3.6,-7.2 0.5,-7.4 1.9,-2.3 4,-4.5 4.6,-7.5 z"
     fill="#ffffff"
     id="path1169"
     style="stroke:#ffffff;stroke-width:2;stroke-miterlimit:4;stroke-dasharray:none;stroke-opacity:1" />
  <path
     d="m 189.76042,68.116284 c 8,0 11.5,-9.1 9.4,-15.6 -5.6,-3.7 -18.5,-4 -17.2,5.5 -0.8,5.2 4.2,7.6 7.8,10.1 z"
     fill="#231f20"
     id="path1171"
     style="stroke:#ffffff;stroke-width:2;stroke-miterlimit:4;stroke-dasharray:none;stroke-opacity:1" />
  <path
     d="m 282.96042,57.016284 c 1.4,-4.4 1.5,-10.1 -1.1,-14.1 -2.3,0.7 -4.6,1.3 -7,1.8 -1.7,2.4 -3.3,4.8 -5,7.2 1.9,5 8.4,9.6 13.1,5.1 z"
     fill="#231f20"
     id="path1173"
     style="stroke:#ffffff;stroke-width:2;stroke-miterlimit:4;stroke-dasharray:none;stroke-opacity:1" />
  <path
     d="m 278.56042,153.71628 c -10.3,-1.8 -20.7,-0.1 -31,-0.3 -4.6,-3.1 -9.1,-6.7 -14.8,-7.1 -1.8,0.8 -3.6,1.5 -5.4,2.2 4.7,0.5 9.6,1.6 13.2,5 -4.5,-0.3 -9.1,-0.1 -13.3,-1.7 -5.7,2.1 -11.1,5.3 -11.9,11.9 -2.4,-3.4 1.1,-6.5 2.5,-9.6 -3.2,-6.7 -10.9,-10.2 -13.2,-17.4 1.7,-2.4 4.6,-2.2 6.4,-0.1 3.4,4.4 5.3,9.6 7.6,14.6 2.9,0.2 5.8,0.4 8.6,0.6 v -3.3 c -1.4,0.6 -2.9,1.2 -4.3,1.9 -2.5,-5.5 -4.6,-11.1 -6.4,-16.8 3.4,0.8 6.7,2 10.1,2.7 15.6,-2.4 32.3,-5.5 44.5,-16.3 2.6,-2.6 7.2,-4.9 6.4,-9.2 -0.3,-2.2 -1,-4.3 -2,-6.2 -1.7,-3.6 -4.1,-6.899996 -5.6,-10.699996 3.5,-1.3 7.1,-2.6 10.5,-4.2 12.2,-11.9 18.3,-28.9 19.6,-45.7 -1.2,-8.9 -3.7,-18.7 -10.6,-25 -12.6,-6.3 -27.4,-4.3 -40.2,0.3 -5.8,2.3 -10,7 -14.9,10.8 -3.9,-0.9 -6.3,-5.4 -8.9,-8.4 -5,-8.5 -11.8,-16.2999999 -21.1,-19.9999999 -7.8,-0.3 -16.7,-2.4 -23.4,2.6 -3.4,2.2 -7.2,4.2 -9.6,7.6999999 -5.4,10.1 -8.5,21.3 -9.4,32.6 -1.7,-0.7 -3.4,-1.3 -5.1,-2 -11.9,-4.4 -24.3,-7.4 -37,-7 -8.8,1.7 -17.4,4.3 -25.600002,8 -16.7,8.7 -27.3,25.7 -33.5,43 -3.8,7.6 -6.5,15.599996 -8,23.899996 -1.4,7.5 -4.3,14.8 -4.7,22.5 0,5.2 0.4,10.4 0.3,15.6 -0.2,0.1 -0.5,0.3 -0.7,0.4 -5.4,3 -11.8,2.9 -17.8,3.9 -4.5,-0.1 -8.8,-2.3 -13.3,-1 h -0.1 c -4.8,2.3 -9.8999999,3.6 -14.6999999,5.8 -1.09999995,6.8 -2.19999995,16.2 6,18.8 h 8.7999999 c 10.4,0 20.7,0.1 31.1,0.2 h 2.4 c 2.5,13 5,26.4 11.9,37.9 8.1,13.1 16.1,26.8 28.4,36.4 11.800002,7.9 26.700002,8.2 40.200002,5.8 5.1,-0.6 8.7,-4.6 13.3,-6.5 2.8,-1.7 7,-2.1 8,-5.7 9.2,-15 2.2,-33.5 -6.2,-47.2 -5.3,-9.4 -16.9,-11.3 -26.7,-10.9 -5.8,0.9 -9.4,5.8 -14.1,8.8 -5.100002,3.1 -10.100002,9.7 -6.200002,15.7 3.300002,6.3 7.400002,14.7 15.800002,14.2 5.3,-0.6 12.3,-1.8 14.6,-7.3 1,-6.7 -6.9,-9.9 -12.2,-11.1 0.3,3.3 0.6,6.5 0.9,9.8 -2.7,-1.9 -5.5,-3.7 -8.3,-5.6 1.7,-8.8 11.5,-8.6 18.3,-11.3 6.9,10.7 14.1,24.5 8.5,37.3 -6.5,8.1 -18.2,7.1 -27.2,5 -11.800002,-1.8 -19.700002,-12.4 -24.900002,-22.3 -7.9,-13.7 -17.5,-28.4 -15.8,-44.9 5.5,-0.1 11.1,-0.5 16.5,0.1 5.3,1.2 10,5.8 15.700002,3.6 12.2,-3.3 24.9,-1.3 37.4,-1.5 9.8,-0.5 19.7,-1 29.5,-0.4 3.5,1 5.5,5.3 9.6,5 4.7,1.6 7.4,-3.3 10.9,-5.3 7.9,-0.3 15.9,-0.5 23.7,0 3.7,6.5 9.3,13.5 17.3,14.5 9.7,0.4 18,-6.5 23.2,-14.1 6.9,1.6 14.3,3.7 21,0.3 14.5,-6.1 30.5,-6.1 45.4,-10.4 v -4.3 c -11.7,-7.4 -26.5,-5.2 -40,-8.6 z m -66.9,0.3 c -8.9,0.2 -19.5,1.3 -24.9,-7.5 -3.6,1 -7.2,2.4 -9.1,5.9 -1.3,-0.7 -4,-2.2 -5.3,-2.9 0,-3.3 0,-6.6 0.3,-9.9 h 5.7 0.3 c 5.5,0.3 10.9,-0.6 16.3,-1.3 2.8,0.3 3.5,3.7 5.3,5.4 3.2,4 7.7,6.8 11.4,10.3 z m -6.3,9.1 c -6.9,0.2 -13.7,0.2 -20.5,-0.2 -0.7,-4.1 4.5,-3.3 7,-3.9 5.8,-0.4 11.5,-0.1 17.3,-0.1 0.2,2.9 -1,4.3 -3.8,4.2 z m 32,-124.099996 c 6.2,-11.1 19.1,-15.3 30.8,-17.3 8.9,-1.1 20.2,2.3 22.5,12.1 6.4,14.7 -0.7,31 -9.1,43.4 -4.9,4.6 -10.5,8.3 -15.1,13.2 -5.6,-11.2 -18,-16.2 -29.4,-19 2.1,-10.8 0.5,-21.7 0.3,-32.4 z m -65.6,-10.4 c 2.8,-9.4 10,-18.4 20.2,-19.7999999 10,-3.6 19.2,4.3999999 24.6,11.9999999 2.8,5.1 7.1,8.8 11.7,12.1 5.1,16.4 3.8,34.7 -3.7,50.2 -2.2,5 -6.9,8 -11.4,10.5 -12.1,3.5 -24.8,-1.8 -33.4,-10.4 l 0.2,-1.2 c -6.1,-2.8 -7.1,-10.2 -8.2,-16 -5.1,-11.8 -3.8,-25.4 0,-37.4 z M 16.560418,173.31628 c -3.6,-0.1 -7.0999999,-0.3 -10.6999999,-0.9 -0.6,-3.4 -2.1,-8.4 1.4,-10.7 3.5999999,-2 6.0999999,-5.2 8.1999999,-8.7 0.4,0.1 0.7,0.1 1.1,0.1 3,0.4 6.1,0.3 9.1,-0.3 -0.3,3.9 -5.6,5.6 -4.9,9.6 0.9,3.9 3.1,7.4 4.7,11.1 -3,-0.1 -5.9,-0.2 -8.9,-0.2 z m 16.1,-2.7 c -0.6,0.3 -1.8,0.8 -2.3,1 -2,-2.8 -3.6,-5.7 -4.8,-8.9 1.4,-2.4 2.6,-5 3.7,-7.5 1.7,-0.1 3.5,-0.2 5.2,-0.4 -2.7,4.8 -6.1,10.7 -1.8,15.8 z m 5.4,0.6 c -0.4,-0.7 -1.3,-2.2 -1.7,-3 0.3,-3 -0.2,-6.4 2.4,-8.6 0.2,-0.2 0.5,-0.6 0.7,-0.9 l 1.1,-1.3 c 0.2,-0.4 0.5,-1.2 0.6,-1.6 l 0.4,1.1 1.4,-0.6 c -0.5,3 -2.7,5.2 -4.6,7.5 3.4,0.2 4.2,10.1 -0.3,7.4 z m 7.3,-8.4 c 0.5,-1.5 1.3,-2.6 2.3,-3.4 3.5,-2.7 9.5,-2 13.7,-2.3 5,0.7 11.2,-1.3 15,3 l -1.6,3.6 c -9,-0.4 -18.1,-0.6 -27.1,-0.8 -0.8,0 -1.5,0 -2.3,-0.1 z m 41.7,-14.5 c -5.2,2.7 -11,2.8 -16.6,2.8 -1.2,-8.6 4.2,-15.9 8.2,-23 1.8,-0.4 3.6,-0.8 5.4,-1.3 -2.5,7.4 -1.1,15 3,21.5 z m -14.4,62 c 3.8,6.2 6.9,12.7 10.5,19 3.8,6.5 10.1,10.9 16,15.4 12.600002,9.3 33.400002,7.9 42.300002,-5.8 5.7,-12.2 -1.4,-25.1 -6.3,-36.3 -8.4,-13.2 -30.3,-3.2 -29.7,11.2 4.8,2.9 10.2,8.8 16.2,5.1 -0.1,-2.3 -0.2,-4.7 -0.2,-7.1 1.4,1.6 2.5,3.4 3.9,5.1 -3.4,4.4 -8.9,4.2 -13.8,3.5 -2,-2.2 -4.1,-4.4 -6.1,-6.6 -2.5,-14.3 15.8,-26.4 28,-19.1 8.7,5.6 11.1,16.2 14.5,25.3 4,10.9 -1.9,23.8 -12.2,28.6 -8,5.1 -17.8,3.1 -26.7,3.1 -12.200002,-0.6 -20.100002,-10.5 -28.000002,-18.4 -7.7,-9.4 -12.7,-20.6 -18.7,-31.2 -3.1,-8.6 -4.9,-17.8 -5.6,-26.9 1.1,0.2 3.2,0.5 4.4,0.6 4.7,11.2 5,24 11.5,34.5 z m -23.6,-39.4 c -0.4,-0.7 -1,-2.1 -1.4,-2.8 10.6,-1.7 21.2,0.8 31.8,1.2 0.4,0.5 1.2,1.4 1.7,1.9 -10.7,0 -21.5,0.8 -32.1,-0.3 z m 32.9,-10.4 c 3.3,-4.1 7.4,-7.4 11.7,-10.6 -6.2,-9.3 -9,-23.1 -0.9,-32.1 -1.6,-1.9 -3.4,-5.2 -6.3,-3.5 -2.3,2.1 -4.2,4.6 -6.4,6.9 -9.3,7.1 -12.9,18.4 -18.5,28.1 -2.7,-0.1 -5.4,-0.2 -8.1,-0.2 0,-0.8 -0.1,-2.5 -0.2,-3.4 -0.5,-4.5 -0.8,-8.9 -0.3,-13.4 2,-7.9 5.5,-15.3 7.5,-23.3 0.2,-0.6 0.5,-1.9 0.7,-2.6 0.3,-1 0.8,-2.9 1.1,-3.9 6,-16.299996 13.4,-32.999996 26.6,-44.799996 8.5,-8.4 20.700002,-10.7 31.800002,-14.2 12.5,-0.7 25,3.1 36.3,8.3 l 0.6,0.3 c 5,2 4.7,7.9 5.8,12.4 0.9,3.4 1.8,6.9 2.9,10.3 1.7,5.1 3.9,10.3 8.2,13.7 7.2,5.5 14.7,11.499996 23.7,13.599996 8,1.5 16.8,0.6 23.7,-3.999996 6,-5.4 8.8,-13.3 15,-18.5 5.8,2.9 12.3,4.2 17.9,7.5 5.8,3.7 8.6,10.3 12.1,15.999996 l 0.6,1.5 c 0.9,2.1 1.7,4.2 2.6,6.3 -10.4,10.4 -25.7,13.1 -39.4,16.3 -5.7,1.7 -11,-1.3 -15.7,-4 -2.4,1.3 -4.9,2.8 -7.3,4.1 -8.6,4.6 -18.6,7.1 -28.4,6 -2.4,-0.3 -4.9,-0.6 -7.3,-0.9 1.1,-5 2.4,-9.9 3.4,-15 -1.2,0.1 -3.7,0.3 -4.9,0.4 -4.1,6.3 -4.3,13.9 -3.5,21.2 0.2,2.7 0.4,5.5 0.5,8.2 -2.9,-3.6 -5.3,-7.6 -5.4,-12.3 0.2,-5.2 0.9,-10.3 1.3,-15.5 -5.4,-2.3 -7.6,3.9 -8.6,7.9 0,2.2 0.2,4.4 0.3,6.6 -9.5,2.2 -19.6,3.3 -29,0.2 -6.8,-2.2 -14.2,-2.4 -20.6,-5.9 -0.2,-2.6 -0.5,-5.3 -0.7,-7.9 -1.9,-0.4 -3.7,-0.7 -5.600002,-1.1 -2.5,6.7 -6,13.5 -5.6,20.9 1.3,4.8 5.3,8.4 8.300002,12.3 -4.400002,1.3 -10.500002,0.3 -13.500002,4.4 -1.8,8 5.5,12.6 10.2,17.5 -6.7,-2.7 -14.3,-6.3 -16.6,-13.8 z m 83.900002,-5.6 c -12.4,0.2 -24.9,0.6 -37.3,-0.5 0.8,-4.1 2.2,-8.1 3.3,-12.2 8.7,-0.3 17.4,0 26.1,-0.4 4.2,3.2 6,8.4 7.9,13.1 z m -42,-1.2 c -3.3,-0.3 -6.5,-0.5 -9.7,-1.1 4.3,-2.9 7.5,-6.4 8.9,-11.5 l 1.7,-0.9 c 0.3,4.5 2.4,9.7 -0.9,13.5 z m -9.8,-15 c -0.6,2.3 -1.1,4.6 -1.5,7 -3.1,1.7 -5.9,4 -8.6,6.1 -3.6,-5.3 -5.000002,-11.5 -3.8,-17.8 4.6,1.4 10.2,1.2 13.9,4.7 z m -18.600002,24.6 c -0.6,-2.1 -1.2,-4.3 -1.9,-6.4 4.6,1.1 11.900002,-1.6 14.700002,2.2 4.1,0.7 8,2.6 12.2,2.7 14.9,-4.4 30.7,-2 46,-2 0.1,1.3 0.3,4 0.4,5.3 -11.5,0.4 -23,0.5 -34.5,0.2 -6,0 -11.7,-4 -17.7,-2.2 -2.6,0.2 -5.6,3 -7.9,0.6 -3.9,-0.2 -7.600002,-0.3 -11.300002,-0.4 z m 70.900002,9.7 c -17.3,0.6 -34.5,0.3 -51.8,0.2 -3.6,-0.1 -7.3,-0.3 -10.9,-0.4 -0.9,-1.2 -1.8,-2.5 -2.7,-3.7 4.5,0 9,0.1 13.6,0 17.7,0.2 35.4,0.5 53.1,1.7 -0.4,0.6 -1,1.7 -1.3,2.2 z m 2.6,-24.2 c 2,2.5 4.2,4.7 6.6,6.8 3.2,-3.7 10.3,-9.6 13.2,-2.6 -4.8,2.3 -10.8,4 -12.4,9.8 l -0.1,0.7 c 0.7,5.1 2.6,10 4.1,14.9 -10.3,-6.6 -5.2,-20.4 -11.4,-29.6 z m 58.1,36 c -4.8,-2.3 -7.8,-6.9 -11.5,-10.5 5.7,2.5 11.3,5.2 17.3,7.2 3.4,-1.4 8.2,-8.9 11,-3.4 -4.5,4 -10.6,8.1 -16.8,6.7 z m 29.2,-12.3 c -4.6,0.6 -8.9,-2.3 -13.6,-1.9 -9.2,0.6 -18.5,1.4 -27.6,-0.6 -10.4,2.2 -21.1,1.2 -31.6,1.8 -0.1,-1 -0.2,-3 -0.3,-4 10.7,-0.9 21.4,-0.5 31.9,1.6 9.8,-1.3 19.8,-0.1 29.6,-1.8 4,0.3 12.5,-1.5 11.6,4.9 z m -17.6,-8.5 c -6,-0.8 -12.3,0.3 -18.2,-1.5 0.4,-0.7 1.2,-2.2 1.6,-3 10.7,-0.9 21.4,-2.4 32.3,-1.8 3,0.6 5.3,3 7.8,4.6 -7.3,3.6 -15.7,2.7 -23.5,1.7 z m 52.1,4.5 c -8.1,1.5 -15.7,5.1 -24,5.3 0.2,-2.2 0.3,-4.5 0.3,-6.7 0.9,-0.6 2.8,-1.9 3.8,-2.5 0.2,-2.4 0.5,-4.8 0.7,-7.2 6.7,-0.3 13,2.2 19.6,2.9 0.1,2.6 0.9,5.6 -0.4,8.2 z"
     fill="#231f20"
     id="path1175"
     style="stroke:#ffffff;stroke-width:2;stroke-miterlimit:4;stroke-dasharray:none;stroke-opacity:1" />
  <path
     d="m 271.56042,157.41628 c 6.7,-0.3 13,2.2 19.6,2.9 0,2.7 0.8,5.7 -0.5,8.3 -8.1,1.5 -15.7,5.1 -24,5.3 0.2,-2.2 0.3,-4.5 0.3,-6.7 0.9,-0.6 2.8,-1.9 3.8,-2.5 0.3,-2.5 0.6,-4.9 0.8,-7.3 z"
     fill="#fefefe"
     id="path1187"
     style="stroke:#ffffff;stroke-width:2;stroke-miterlimit:4;stroke-dasharray:none;stroke-opacity:1" />
  <path
     d="m 176.26042,163.61628 c 0,-0.2 0.1,-0.5 0.1,-0.7 z"
     fill="#959d64"
     id="path1197"
     style="stroke:#ffffff;stroke-width:2;stroke-miterlimit:4;stroke-dasharray:none;stroke-opacity:1" />
</svg>
