<?xml version="1.0" encoding="UTF-8" standalone="no"?>
<svg
   xmlns:dc="http://purl.org/dc/elements/1.1/"
   xmlns:cc="http://creativecommons.org/ns#"
   xmlns:rdf="http://www.w3.org/1999/02/22-rdf-syntax-ns#"
   xmlns:svg="http://www.w3.org/2000/svg"
   xmlns="http://www.w3.org/2000/svg"
   xmlns:sodipodi="http://sodipodi.sourceforge.net/DTD/sodipodi-0.dtd"
   xmlns:inkscape="http://www.inkscape.org/namespaces/inkscape"
   role="img"
   viewBox="0 0 504.97818 502.38373"
   version="1.1"
   id="svg849"
   sodipodi:docname="visualstudiocode.svg"
   width="504.97818"
   height="502.38373"
   inkscape:version="1.0.1 (3bc2e813f5, 2020-09-07)">
  <metadata
     id="metadata855">
    <rdf:RDF>
      <cc:Work
         rdf:about="">
        <dc:format>image/svg+xml</dc:format>
        <dc:type
           rdf:resource="http://purl.org/dc/dcmitype/StillImage" />
        <dc:title>Visual Studio Code</dc:title>
      </cc:Work>
    </rdf:RDF>
  </metadata>
  <defs
     id="defs853" />
  <sodipodi:namedview
     pagecolor="#5b4c4c"
     bordercolor="#666666"
     borderopacity="1"
     objecttolerance="10"
     gridtolerance="10"
     guidetolerance="10"
     inkscape:pageopacity="0"
     inkscape:pageshadow="2"
     inkscape:window-width="1920"
     inkscape:window-height="1017"
     id="namedview851"
     showgrid="false"
     fit-margin-top="0"
     fit-margin-left="0"
     fit-margin-right="0"
     fit-margin-bottom="0"
     inkscape:zoom="1.3258252"
     inkscape:cx="368.79898"
     inkscape:cy="231.76688"
     inkscape:window-x="-8"
     inkscape:window-y="-8"
     inkscape:window-maximized="1"
     inkscape:current-layer="svg849" />
  <title
     id="title845">Visual Studio Code</title>
  <path
     d="M 484.77008,55.099968 381.85489,5.579845 a 31.124554,31.124554 0 0 0 -35.52033,6.041579 L 149.25406,191.41052 63.421959,126.24479 a 20.812202,20.812202 0 0 0 -26.582952,1.18748 L 9.2977354,152.47358 a 20.833035,20.833035 0 0 0 -0.020833,30.81206 L 83.713335,251.20133 9.2769023,319.11702 a 20.833035,20.833035 0 0 0 0.020833,30.81206 L 36.85984,374.94956 a 20.812202,20.812202 0 0 0 26.582952,1.18748 L 149.27489,310.97131 346.3554,490.7604 a 31.082888,31.082888 0 0 0 35.49949,6.04158 l 102.95685,-49.52013 a 31.249552,31.249552 0 0 0 17.66642,-28.16626 V 83.26623 A 31.249552,31.249552 0 0 0 484.77008,55.099968 Z M 377.56328,364.6997 228.02376,251.20133 377.56328,137.70296 Z"
     id="path847"
     style="fill:#000000;fill-opacity:1;stroke:#ffffff;stroke-width:5;stroke-miterlimit:4;stroke-dasharray:none;stroke-opacity:1" />
</svg>
