<?xml version="1.0" encoding="UTF-8" standalone="no"?>
<svg
   xmlns:dc="http://purl.org/dc/elements/1.1/"
   xmlns:cc="http://creativecommons.org/ns#"
   xmlns:rdf="http://www.w3.org/1999/02/22-rdf-syntax-ns#"
   xmlns:svg="http://www.w3.org/2000/svg"
   xmlns="http://www.w3.org/2000/svg"
   xmlns:sodipodi="http://sodipodi.sourceforge.net/DTD/sodipodi-0.dtd"
   xmlns:inkscape="http://www.inkscape.org/namespaces/inkscape"
   version="1.1"
   width="24"
   height="24"
   viewBox="0 0 24 24"
   id="svg855"
   sodipodi:docname="image-click-download.svg"
   inkscape:version="1.0.1 (3bc2e813f5, 2020-09-07)">
  <metadata
     id="metadata861">
    <rdf:RDF>
      <cc:Work
         rdf:about="">
        <dc:format>image/svg+xml</dc:format>
        <dc:type
           rdf:resource="http://purl.org/dc/dcmitype/StillImage" />
        <dc:title></dc:title>
      </cc:Work>
    </rdf:RDF>
  </metadata>
  <defs
     id="defs859">
    <inkscape:path-effect
       effect="powerclip"
       id="path-effect953"
       is_visible="true"
       lpeversion="1"
       inverse="true"
       flatten="false"
       hide_clip="false"
       message="Use fill-rule evenodd on &lt;b&gt;fill and stroke&lt;/b&gt; dialog if no flatten result after convert clip to paths." />
    <inkscape:path-effect
       effect="powerclip"
       id="path-effect890"
       is_visible="true"
       lpeversion="1"
       inverse="true"
       flatten="false"
       hide_clip="false"
       message="Use fill-rule evenodd on &lt;b&gt;fill and stroke&lt;/b&gt; dialog if no flatten result after convert clip to paths." />
    <clipPath
       clipPathUnits="userSpaceOnUse"
       id="clipPath945">
      <g
         id="g951"
         style="display:none">
        <path
           d="M 29.586052,27.43379 26.484775,30.535067 19.380431,23.562692 17.048974,28.995426 12.65,13.665 l 15.39641,4.398974 -5.564702,2.265472 7.104344,7.104344"
           id="path947"
           sodipodi:nodetypes="cccccccc"
           style="display:block;stroke-width:2.19949" />
        <path
           d="M 5.5,8.488522 V 7.490817 H 9.490819 V 8.488522 H 5.5 M 9.490819,4.996557 7.495409,6.991965 5.5,4.996557 H 6.747131 V 3.5 h 1.496557 v 1.496557 h 1.247131"
           id="path949"
           sodipodi:nodetypes="ccccccccccccc"
           style="stroke-width:0.498852" />
      </g>
      <path
         id="lpe_path-effect953"
         class="powerclip"
         d="M -1,-3 H 25 V 27 H -1 Z M 29.586052,27.43379 22.481708,20.329446 28.04641,18.063974 12.65,13.665 l 4.398974,15.330426 2.331457,-5.432734 7.104344,6.972375 3.101277,-3.101277 M 5.5,8.488522 H 9.490819 V 7.490817 H 5.5 V 8.488522 M 9.490819,4.996557 H 8.243688 V 3.5 H 6.747131 V 4.996557 H 5.5 l 1.995409,1.995408 1.99541,-1.995408" />
    </clipPath>
  </defs>
  <sodipodi:namedview
     pagecolor="#ffffff"
     bordercolor="#666666"
     borderopacity="1"
     objecttolerance="10"
     gridtolerance="10"
     guidetolerance="10"
     inkscape:pageopacity="0"
     inkscape:pageshadow="2"
     inkscape:window-width="1920"
     inkscape:window-height="1017"
     id="namedview857"
     showgrid="false"
     inkscape:zoom="14.5625"
     inkscape:cx="1.087211"
     inkscape:cy="17.227825"
     inkscape:window-x="-8"
     inkscape:window-y="-8"
     inkscape:window-maximized="1"
     inkscape:current-layer="svg855" />
  <path
     d="m 13,9 h 5.5 L 13,3.5 V 9 M 6,2 h 8 l 6,6 v 12 c 0,1.104569 -0.895431,2 -2,2 H 6 C 4.89,22 4,21.1 4,20 V 4 C 4,2.89 4.89,2 6,2 m 0,18 h 9 3 L 16.798283,15.261803 14,16 12,14 6,20"
     id="path853"
     sodipodi:nodetypes="cccccccssssscccccccc"
     clip-path="url(#clipPath945)"
     style="display:inline"
     inkscape:path-effect="#path-effect953"
     inkscape:original-d="m 13,9 h 5.5 L 13,3.5 V 9 M 6,2 h 8 l 6,6 v 12 c 0,1.104569 -0.895431,2 -2,2 H 6 C 4.89,22 4,21.1 4,20 V 4 C 4,2.89 4.89,2 6,2 m 0,18 h 9 3 L 16.798283,15.261803 14,16 12,14 6,20" />
  <path
     d="m 21.35,20.925 -1.41,1.41 -3.23,-3.17 -1.06,2.47 -2,-6.97 7,2 -2.53,1.03 3.23,3.23"
     id="path863"
     sodipodi:nodetypes="cccccccc" />
</svg>
